<svg width="22" height="22" viewBox="0 0 22 22" fill="none" xmlns="http://www.w3.org/2000/svg">
<path d="M20.609 2.75H8.2461C7.85976 2.75 7.53423 2.88607 7.26952 3.1582C7.0048 3.43034 6.87244 3.75619 6.87244 4.13574C6.87244 4.5153 7.0048 4.83756 7.26952 5.10254C7.53423 5.36751 7.85976 5.5 8.2461 5.5H20.609C20.9954 5.5 21.3209 5.36751 21.5856 5.10254C21.8503 4.83756 21.9827 4.5153 21.9827 4.13574C21.9827 3.75619 21.8468 3.43034 21.5749 3.1582C21.303 2.88607 20.9811 2.75 20.609 2.75ZM21.2959 8.25H7.55927C7.37326 8.25 7.21228 8.31803 7.07634 8.4541C6.94041 8.59017 6.87244 8.7513 6.87244 8.9375C6.87244 9.1237 6.94041 9.28483 7.07634 9.4209C7.21228 9.55697 7.37326 9.625 7.55927 9.625H21.2959C21.4819 9.625 21.6428 9.55697 21.7788 9.4209C21.9147 9.28483 21.9827 9.1237 21.9827 8.9375C21.9827 8.7513 21.9147 8.59017 21.7788 8.4541C21.6428 8.31803 21.4819 8.25 21.2959 8.25ZM20.609 11H8.2461C7.85976 11 7.53423 11.1325 7.26952 11.3975C7.0048 11.6624 6.87244 11.9883 6.87244 12.375C6.87244 12.7617 7.0048 13.0876 7.26952 13.3525C7.53423 13.6175 7.85976 13.75 8.2461 13.75H20.609C20.9954 13.75 21.3209 13.6139 21.5856 13.3418C21.8503 13.0697 21.9827 12.7438 21.9827 12.3643C21.9827 11.9847 21.8468 11.6624 21.5749 11.3975C21.303 11.1325 20.9811 11 20.609 11ZM21.2959 16.5H7.55927C7.37326 16.5 7.21228 16.568 7.07634 16.7041C6.94041 16.8402 6.87244 17.0013 6.87244 17.1875C6.87244 17.3737 6.94041 17.5348 7.07634 17.6709C7.21228 17.807 7.37326 17.875 7.55927 17.875H21.2959C21.4819 17.875 21.6428 17.807 21.7788 17.6709C21.9147 17.5348 21.9827 17.3737 21.9827 17.1875C21.9827 17.0013 21.9147 16.8402 21.7788 16.7041C21.6428 16.568 21.4819 16.5 21.2959 16.5ZM20.609 19.25H8.2461C7.85976 19.25 7.53423 19.3825 7.26952 19.6475C7.0048 19.9124 6.87244 20.2383 6.87244 20.625C6.87244 21.0117 7.0048 21.3376 7.26952 21.6025C7.53423 21.8675 7.85976 22 8.2461 22H20.609C20.9954 22 21.3209 21.8675 21.5856 21.6025C21.8503 21.3376 21.9827 21.0117 21.9827 20.625C21.9827 20.2383 21.8468 19.9124 21.5749 19.6475C21.303 19.3825 20.9811 19.25 20.609 19.25ZM4.12513 0H1.37781C0.991467 0 0.665939 0.132486 0.401224 0.397461C0.136508 0.662436 0.00415039 0.988281 0.00415039 1.375V4.125C0.00415039 4.51172 0.136508 4.83756 0.401224 5.10254C0.665939 5.36751 0.991467 5.5 1.37781 5.5H4.12513C4.51147 5.5 4.837 5.36751 5.10171 5.10254C5.36643 4.83756 5.49878 4.51172 5.49878 4.125V1.375C5.49878 0.988281 5.36643 0.662436 5.10171 0.397461C4.837 0.132486 4.51147 0 4.12513 0ZM4.12513 8.25H1.37781C0.991467 8.25 0.665939 8.38607 0.401224 8.6582C0.136508 8.93034 0.00415039 9.2526 0.00415039 9.625V12.375C0.00415039 12.7617 0.136508 13.0876 0.401224 13.3525C0.665939 13.6175 0.991467 13.75 1.37781 13.75H4.12513C4.49716 13.75 4.81911 13.6139 5.09098 13.3418C5.36285 13.0697 5.49878 12.7474 5.49878 12.375V9.625C5.49878 9.23828 5.36643 8.91243 5.10171 8.64746C4.837 8.38249 4.51147 8.25 4.12513 8.25ZM4.12513 16.5H1.37781C0.991467 16.5 0.665939 16.6325 0.401224 16.8975C0.136508 17.1624 0.00415039 17.4883 0.00415039 17.875V20.625C0.00415039 20.9974 0.136508 21.3197 0.401224 21.5918C0.665939 21.8639 0.991467 22 1.37781 22H4.12513C4.51147 22 4.837 21.8639 5.10171 21.5918C5.36643 21.3197 5.49878 20.9974 5.49878 20.625V17.875C5.49878 17.4883 5.36285 17.1624 5.09098 16.8975C4.81911 16.6325 4.49716 16.5 4.12513 16.5ZM7.55927 1.375H21.2959C21.4819 1.375 21.6428 1.30697 21.7788 1.1709C21.9147 1.03483 21.9827 0.873697 21.9827 0.6875C21.9827 0.501303 21.9147 0.34017 21.7788 0.204102C21.6428 0.0680332 21.4819 0 21.2959 0H7.55927C7.37326 0 7.21228 0.0680332 7.07634 0.204102C6.94041 0.34017 6.87244 0.501303 6.87244 0.6875C6.87244 0.873697 6.94041 1.03483 7.07634 1.1709C7.21228 1.30697 7.37326 1.375 7.55927 1.375Z" fill="black"/>
</svg>
