<svg width="44" height="44" viewBox="0 0 44 44" fill="none" xmlns="http://www.w3.org/2000/svg">
<path d="M15.7447 15.0668C16.4813 14.4233 17.3567 13.9271 18.323 13.6346L18.8582 13.4938L19.2048 13.4288L19.5862 13.3746L19.9762 13.3421L20.3748 13.3313H36.6248C38.4231 13.3311 40.1533 14.019 41.4606 15.2538C42.7679 16.4886 43.5533 18.1767 43.6557 19.9721L43.6665 20.3729V36.6229C43.6666 38.4216 42.9785 40.1521 41.7432 41.4594C40.5079 42.7668 38.8192 43.5519 37.0235 43.6538L36.6248 43.6646H20.3748C18.5762 43.6647 16.8457 42.9766 15.5383 41.7413C14.231 40.5061 13.4458 38.8173 13.344 37.0216L13.3332 36.6251V20.3751L13.3397 20.0523L13.37 19.6406L13.4263 19.2268L13.5043 18.8238L13.6322 18.3406L13.8055 17.8293L13.994 17.3916L14.1717 17.0406L14.3753 16.6874L14.6917 16.2173L14.8953 15.9508L15.1878 15.6128L15.4218 15.3701L15.7447 15.0689V15.0668ZM28.4998 19.8334C28.1071 19.8335 27.7278 19.9757 27.4318 20.2338C27.1359 20.4919 26.9434 20.8484 26.89 21.2374L26.8748 21.4584V26.8729H21.4582C21.0655 26.873 20.6861 27.0152 20.3901 27.2733C20.0942 27.5314 19.9017 27.8879 19.8483 28.2769L19.8332 28.4979C19.8332 29.3213 20.4442 29.9994 21.2372 30.1078L21.4582 30.1229H26.8748V35.5418C26.8748 36.3651 27.4858 37.0454 28.2788 37.1516L28.4998 37.1668C28.8925 37.1667 29.2719 37.0245 29.5678 36.7664C29.8638 36.5083 30.0563 36.1518 30.1097 35.7628L30.1248 35.5418V30.1229H35.5415C35.9345 30.1228 36.3142 29.9803 36.6101 29.7218C36.9061 29.4632 37.0984 29.1062 37.1513 28.7168L37.1665 28.5001C37.1665 28.1074 37.0243 27.728 36.7662 27.4321C36.5081 27.1361 36.1515 26.9437 35.7625 26.8903L35.5415 26.8751H30.1248V21.4584C30.1248 21.0658 29.9826 20.6864 29.7245 20.3904C29.4664 20.0945 29.1099 19.902 28.7208 19.8486L28.4998 19.8334ZM29.7608 5.1716L29.8735 5.5551L31.3772 11.1624H20.3748C19.1654 11.1624 17.9678 11.4007 16.8505 11.8636C15.7331 12.3265 14.7179 13.005 13.8628 13.8603C13.0077 14.7156 12.3295 15.7309 11.8668 16.8484C11.4042 17.9659 11.1662 19.1635 11.1665 20.3729V34.3133C9.75778 34.2293 8.40673 33.7243 7.28837 32.8636C6.17001 32.0029 5.33586 30.8262 4.894 29.4859L4.78133 29.1046L0.575829 13.4071C0.110003 11.6702 0.326307 9.82098 1.18039 8.23852C2.03447 6.65605 3.46161 5.46029 5.16916 4.89644L5.55483 4.78377L21.2502 0.578271C22.987 0.112444 24.8363 0.328749 26.4187 1.18283C28.0012 2.03691 29.197 3.46405 29.7608 5.1716Z" fill="black"/>
</svg>
