<svg width="14" height="14" viewBox="0 0 14 14" fill="none" xmlns="http://www.w3.org/2000/svg">
<path d="M5.05859 8.35905C5.05859 9.11155 5.63609 9.71822 6.35359 9.71822H7.81776C8.44193 9.71822 8.94943 9.18739 8.94943 8.53406C8.94943 7.82239 8.64026 7.57155 8.17943 7.40822L5.82859 6.59156C5.36776 6.42822 5.05859 6.17739 5.05859 5.46572C5.05859 4.81239 5.56609 4.28156 6.19026 4.28156H7.65443C8.37193 4.28156 8.94943 4.88822 8.94943 5.64072" stroke="#737373" stroke-width="0.875" stroke-linecap="round" stroke-linejoin="round"/>
<path d="M7 3.5V10.5" stroke="#737373" stroke-width="0.875" stroke-linecap="round" stroke-linejoin="round"/>
<path d="M6.99984 12.8334C10.2215 12.8334 12.8332 10.2217 12.8332 7.00002C12.8332 3.77836 10.2215 1.16669 6.99984 1.16669C3.77818 1.16669 1.1665 3.77836 1.1665 7.00002C1.1665 10.2217 3.77818 12.8334 6.99984 12.8334Z" stroke="#737373" stroke-width="0.875" stroke-linecap="round" stroke-linejoin="round"/>
</svg>
