<svg width="28" height="28" viewBox="0 0 28 28" fill="none" xmlns="http://www.w3.org/2000/svg">
<path d="M0 3.5C0 2.57174 0.368749 1.6815 1.02513 1.02513C1.6815 0.368749 2.57174 0 3.5 0H15.75C16.6783 0 17.5685 0.368749 18.2249 1.02513C18.8813 1.6815 19.25 2.57174 19.25 3.5V14C19.25 14.9283 18.8813 15.8185 18.2249 16.4749C17.5685 17.1313 16.6783 17.5 15.75 17.5H12.985L10.395 22.2915C10.3202 22.4301 10.2094 22.546 10.0742 22.6269C9.93897 22.7078 9.78445 22.7507 9.62692 22.751C9.46938 22.7514 9.31467 22.7092 9.17911 22.6289C9.04355 22.5487 8.93218 22.4333 8.85675 22.295L6.2335 17.5H3.5C2.57174 17.5 1.6815 17.1313 1.02513 16.4749C0.368749 15.8185 0 14.9283 0 14V3.5ZM6.125 5.25C5.89294 5.25 5.67038 5.34219 5.50628 5.50628C5.34219 5.67038 5.25 5.89294 5.25 6.125V7.875C5.24992 8.03735 5.29501 8.19652 5.38022 8.33471C5.46543 8.4729 5.58741 8.58465 5.73251 8.65748C5.87761 8.7303 6.04011 8.76132 6.20184 8.74706C6.36356 8.7328 6.51813 8.67383 6.64825 8.57675C6.29475 9.74225 5.768 10.493 5.5055 10.7555C5.42415 10.8369 5.35961 10.9334 5.31558 11.0397C5.27156 11.146 5.24889 11.2599 5.24889 11.375C5.24889 11.4901 5.27156 11.604 5.31558 11.7103C5.35961 11.8166 5.42415 11.9131 5.5055 11.9945C5.6698 12.1588 5.89264 12.2511 6.125 12.2511C6.24005 12.2511 6.35398 12.2284 6.46027 12.1844C6.56657 12.1404 6.66315 12.0759 6.7445 11.9945C7.49525 11.242 8.75 9.1525 8.75 6.125C8.75 5.89294 8.65781 5.67038 8.49372 5.50628C8.32962 5.34219 8.10706 5.25 7.875 5.25H6.125ZM11.375 5.25C11.1429 5.25 10.9204 5.34219 10.7563 5.50628C10.5922 5.67038 10.5 5.89294 10.5 6.125V7.875C10.4999 8.03735 10.545 8.19652 10.6302 8.33471C10.7154 8.4729 10.8374 8.58465 10.9825 8.65748C11.1276 8.7303 11.2901 8.76132 11.4518 8.74706C11.6136 8.7328 11.7681 8.67383 11.8982 8.57675C11.5447 9.74225 11.018 10.493 10.7555 10.7555C10.6741 10.8369 10.6096 10.9334 10.5656 11.0397C10.5216 11.146 10.4989 11.2599 10.4989 11.375C10.4989 11.4901 10.5216 11.604 10.5656 11.7103C10.6096 11.8166 10.6741 11.9131 10.7555 11.9945C10.8369 12.0759 10.9334 12.1404 11.0397 12.1844C11.146 12.2284 11.2599 12.2511 11.375 12.2511C11.4901 12.2511 11.604 12.2284 11.7103 12.1844C11.8166 12.1404 11.9131 12.0759 11.9945 11.9945C12.7452 11.242 14 9.1525 14 6.125C14 5.89294 13.9078 5.67038 13.7437 5.50628C13.5796 5.34219 13.3571 5.25 13.125 5.25H11.375ZM6.15475 21H0.875C0.642936 21 0.420376 21.0922 0.256282 21.2563C0.0921874 21.4204 0 21.6429 0 21.875C0 22.1071 0.0921874 22.3296 0.256282 22.4937C0.420376 22.6578 0.642936 22.75 0.875 22.75H7.112L6.15475 21ZM12.1363 22.75H27.125C27.3571 22.75 27.5796 22.6578 27.7437 22.4937C27.9078 22.3296 28 22.1071 28 21.875C28 21.6429 27.9078 21.4204 27.7437 21.2563C27.5796 21.0922 27.3571 21 27.125 21H13.083L12.1363 22.75ZM0 27.125C0 26.8929 0.0921874 26.6704 0.256282 26.5063C0.420376 26.3422 0.642936 26.25 0.875 26.25H18.375C18.6071 26.25 18.8296 26.3422 18.9937 26.5063C19.1578 26.6704 19.25 26.8929 19.25 27.125C19.25 27.3571 19.1578 27.5796 18.9937 27.7437C18.8296 27.9078 18.6071 28 18.375 28H0.875C0.642936 28 0.420376 27.9078 0.256282 27.7437C0.0921874 27.5796 0 27.3571 0 27.125Z" fill="#737373"/>
</svg>
