<svg width="49" height="48" viewBox="0 0 49 48" fill="none" xmlns="http://www.w3.org/2000/svg">
<path d="M42.1999 11.7001H5.3249V10.2251L37.7749 7.62908V10.2251H42.1999V5.80008C42.1999 2.55508 39.5714 0.277682 36.3619 0.734932L6.7409 4.96523C3.52835 5.42543 0.899902 8.45508 0.899902 11.7001V41.2001C0.899902 42.7649 1.52151 44.2655 2.62797 45.372C3.73444 46.4785 5.23512 47.1001 6.7999 47.1001H42.1999C43.7647 47.1001 45.2654 46.4785 46.3718 45.372C47.4783 44.2655 48.0999 42.7649 48.0999 41.2001V17.6001C48.0999 16.0353 47.4783 14.5346 46.3718 13.4282C45.2654 12.3217 43.7647 11.7001 42.1999 11.7001ZM37.7749 32.3678C37.1936 32.3676 36.618 32.2529 36.0811 32.0303C35.5441 31.8076 35.0562 31.4814 34.6453 31.0703C34.2344 30.6591 33.9086 30.171 33.6863 29.6339C33.464 29.0968 33.3497 28.5211 33.3499 27.9398C33.3501 27.3585 33.4648 26.783 33.6874 26.246C33.91 25.709 34.2363 25.2212 34.6474 24.8103C35.0586 24.3994 35.5467 24.0735 36.0838 23.8512C36.6209 23.6289 37.1966 23.5146 37.7779 23.5148C38.9518 23.5152 40.0776 23.982 40.9074 24.8124C41.7373 25.6428 42.2032 26.7688 42.2028 27.9428C42.2025 29.1168 41.7357 30.2425 40.9053 31.0723C40.0749 31.9022 38.9489 32.3682 37.7749 32.3678Z" fill="black"/>
</svg>
