<svg width="26" height="26" viewBox="0 0 26 26" fill="none" xmlns="http://www.w3.org/2000/svg">
<path d="M19.4131 10.9633C19.0556 10.8766 18.6765 10.8333 18.2865 10.8333C15.4481 10.8333 13.1406 13.1408 13.1406 15.9791C13.1406 16.9433 13.4115 17.8533 13.8881 18.6333C14.289 19.305 14.8415 19.8791 15.5131 20.2908C16.3148 20.8216 17.2681 21.125 18.2865 21.125C20.1715 21.125 21.8073 20.1175 22.6956 18.6333C23.1723 17.8533 23.4323 16.9433 23.4323 15.9791C23.4323 13.5308 21.7206 11.4725 19.4131 10.9633ZM20.854 15.3075L18.1023 17.8425C17.9506 17.9833 17.7448 18.0591 17.5498 18.0591C17.344 18.0591 17.1381 17.9833 16.9756 17.8208L15.7081 16.5533C15.394 16.2391 15.394 15.7191 15.7081 15.405C16.0223 15.0908 16.5423 15.0908 16.8565 15.405L17.5715 16.12L19.749 14.1158C20.0848 13.8125 20.594 13.8341 20.8973 14.1591C21.2006 14.495 21.179 15.0041 20.854 15.3075Z" fill="#292D32"/>
<path d="M22.2951 4.35502V6.76002C22.2951 7.63752 21.7534 8.73169 21.2117 9.28419L21.0167 9.45752C20.8651 9.59835 20.6376 9.63085 20.4426 9.56585C20.2259 9.49002 20.0092 9.43585 19.7926 9.38169C19.3159 9.26252 18.8067 9.20835 18.2867 9.20835C14.5492 9.20835 11.5159 12.2417 11.5159 15.9792C11.5159 17.2142 11.8517 18.4275 12.4909 19.4675C13.0326 20.3775 13.7909 21.1359 14.6142 21.645C14.8634 21.8075 14.9609 22.1542 14.7442 22.3492C14.6684 22.4142 14.5926 22.4684 14.5167 22.5225L13.0001 23.5084C11.5917 24.3859 9.65258 23.4 9.65258 21.645V15.8492C9.65258 15.08 9.21924 14.0942 8.78591 13.5525L4.68008 9.17586C4.13841 8.62335 3.70508 7.63752 3.70508 6.98752V4.46335C3.70508 3.15252 4.68008 2.16669 5.86091 2.16669H20.1392C21.3201 2.16669 22.2951 3.15252 22.2951 4.35502Z" fill="#292D32"/>
</svg>
