<svg width="51" height="55" viewBox="0 0 51 55" fill="none" xmlns="http://www.w3.org/2000/svg">
<path d="M44.2361 0C47.4588 0 50.0541 2.60563 50.207 5.67531V55L44.0745 49.7905L40.7092 46.7294L37.0294 43.5239L38.5608 48.5736H6.39609C3.18203 48.5736 0.578125 46.1381 0.578125 42.8983V5.68563C0.578125 2.61594 3.18375 0.0103125 6.40641 0.0103125H44.2189L44.2361 0ZM30.2162 13.0247H30.1441L29.6783 13.4819C34.4323 14.8603 36.732 17.0087 36.732 17.0087C33.6709 15.4773 30.9038 14.7073 28.1469 14.3945C26.16 14.0903 24.1628 14.2519 22.4802 14.3945H22.0144C20.9402 14.3945 18.6491 14.8603 15.5777 16.0858C14.512 16.5516 13.895 16.8558 13.895 16.8558C13.895 16.8558 16.1861 14.5544 21.253 13.3289L20.9402 13.0247C20.9402 13.0247 17.1091 12.8717 12.9738 15.9345C12.9738 15.9345 8.83844 23.1412 8.83844 32.0203C8.83844 32.0203 11.1295 36.0044 17.415 36.1556C17.415 36.1556 18.3363 34.9387 19.2592 33.8645C15.7323 32.7903 14.3539 30.6419 14.3539 30.6419C14.3539 30.6419 14.6667 30.7948 15.1239 31.0991H15.258C15.3302 31.0991 15.3663 31.1352 15.4006 31.1712V31.1884C15.4367 31.2245 15.4728 31.2503 15.5347 31.2503C16.2961 31.5631 17.0472 31.8673 17.6659 32.1716C18.7402 32.6287 20.11 33.0928 21.7927 33.3988C23.9239 33.7116 26.3663 33.8559 29.1506 33.3988C30.5205 33.0859 31.8989 32.7903 33.2773 32.1716C34.1642 31.7144 35.2642 31.2589 36.4725 30.4803C36.4725 30.4803 35.1027 32.6287 31.4228 33.703C32.1756 34.7686 33.2395 35.9941 33.2395 35.9941C39.5319 35.8514 41.9759 31.8673 42.11 32.0375C42.11 23.167 37.9472 15.9517 37.9472 15.9517C34.2055 13.1673 30.6958 13.0608 30.0787 13.0608L30.2042 13.0161L30.2162 13.0247ZM30.6013 23.1412C32.2134 23.1412 33.5111 24.5111 33.5111 26.1938C33.5111 27.8953 32.2048 29.2634 30.6013 29.2634C28.9891 29.2634 27.6914 27.8936 27.6914 26.2109C27.6914 24.5094 28.9977 23.1412 30.6013 23.1412ZM20.1908 23.1412C21.7927 23.1412 23.092 24.5111 23.092 26.1938C23.092 27.8953 21.7858 29.2634 20.1822 29.2634C18.57 29.2634 17.2638 27.8936 17.2638 26.2109C17.2638 24.5094 18.57 23.1412 20.1822 23.1412H20.1908Z" fill="white"/>
</svg>
