<svg width="30" height="30" viewBox="0 0 30 30" fill="none" xmlns="http://www.w3.org/2000/svg">
<g clip-path="url(#clip0_5_892)">
<path d="M16.6168 -1.07698e-06C17.0578 -1.07698e-06 17.4523 0.274499 17.6008 0.685499L18.6598 3.621C19.0393 3.7155 19.3648 3.81 19.6408 3.909C19.9423 4.017 20.3308 4.1805 20.8108 4.404L23.2768 3.099C23.4781 2.99236 23.7085 2.95387 23.9336 2.9893C24.1586 3.02472 24.366 3.13217 24.5248 3.2955L26.6938 5.538C26.9818 5.8365 27.0628 6.273 26.9008 6.654L25.7443 9.3645C25.9363 9.717 26.0893 10.0185 26.2063 10.2705C26.3323 10.545 26.4883 10.923 26.6743 11.4105L29.3698 12.5655C29.7748 12.738 30.0253 13.143 29.9983 13.5765L29.8003 16.689C29.7868 16.8912 29.7142 17.085 29.5915 17.2463C29.4689 17.4076 29.3015 17.5294 29.1103 17.5965L26.5573 18.504C26.4838 18.8565 26.4073 19.158 26.3263 19.413C26.1957 19.8068 26.0465 20.1942 25.8793 20.574L27.1618 23.409C27.2523 23.6082 27.2767 23.8311 27.2314 24.0452C27.186 24.2592 27.0733 24.4531 26.9098 24.5985L24.4708 26.7765C24.3102 26.9193 24.1098 27.0097 23.8964 27.0354C23.683 27.0611 23.4668 27.021 23.2768 26.9205L20.7628 25.5885C20.3695 25.7968 19.9637 25.9806 19.5478 26.139L18.4498 26.55L17.4748 29.25C17.4026 29.4477 17.2722 29.619 17.1009 29.7413C16.9296 29.8637 16.7253 29.9313 16.5148 29.9355L13.6648 30C13.4488 30.0057 13.2363 29.9442 13.0566 29.8242C12.8768 29.7041 12.7388 29.5313 12.6613 29.3295L11.5123 26.289C11.1203 26.155 10.7321 26.01 10.3483 25.854C10.0344 25.7181 9.72521 25.5715 9.42132 25.4145L6.57132 26.6325C6.38353 26.7126 6.1765 26.7364 5.97543 26.701C5.77436 26.6656 5.58793 26.5725 5.43882 26.433L3.32982 24.4545C3.1728 24.3078 3.06587 24.1155 3.02414 23.9047C2.98242 23.694 3.00802 23.4754 3.09732 23.28L4.32282 20.61C4.15983 20.2938 4.00873 19.9715 3.86982 19.644C3.70767 19.2431 3.5576 18.8374 3.41982 18.4275L0.734819 17.61C0.51657 17.544 0.32621 17.4078 0.193303 17.2226C0.0603965 17.0373 -0.00761937 16.8134 -0.000181218 16.5855L0.104819 13.704C0.112293 13.516 0.171024 13.3336 0.274661 13.1766C0.378298 13.0195 0.522896 12.8938 0.692819 12.813L3.50982 11.46C3.64032 10.9815 3.75432 10.6095 3.85482 10.338C3.99633 9.97537 4.15348 9.61903 4.32582 9.27L3.10482 6.69C3.01216 6.49407 2.98402 6.27381 3.02445 6.06088C3.06488 5.84795 3.17179 5.65333 3.32982 5.505L5.43582 3.516C5.58345 3.37676 5.76817 3.28314 5.96776 3.24642C6.16735 3.2097 6.37329 3.23143 6.56082 3.309L9.40782 4.485C9.72282 4.275 10.0078 4.1055 10.2658 3.969C10.5733 3.8055 10.9843 3.6345 11.5018 3.45L12.4918 0.688499C12.565 0.486402 12.6988 0.311821 12.8749 0.188596C13.051 0.0653702 13.2609 -0.000493191 13.4758 -1.07698e-06H16.6168ZM15.0358 10.5285C12.5353 10.5285 10.5088 12.531 10.5088 15.003C10.5088 17.475 12.5353 19.479 15.0358 19.479C17.5348 19.479 19.5613 17.475 19.5613 15.003C19.5613 12.531 17.5363 10.5285 15.0358 10.5285Z" fill="#737373"/>
</g>
<defs>
<clipPath id="clip0_5_892">
<rect width="30" height="30" fill="white"/>
</clipPath>
</defs>
</svg>
