<svg width="24" height="24" viewBox="0 0 24 24" fill="none" xmlns="http://www.w3.org/2000/svg">
<path d="M9.89185 19.7661C4.4423 19.7661 0.00878906 15.3326 0.00878906 9.88306C0.00878906 4.43351 4.4423 0 9.89185 0C15.3414 0 19.7749 4.43351 19.7749 9.88306C19.7749 15.3326 15.3414 19.7661 9.89185 19.7661ZM9.89185 1.87357C5.47539 1.87357 1.88235 5.4666 1.88235 9.88306C1.88235 14.2995 5.47539 17.8925 9.89185 17.8925C14.3083 17.8925 17.9013 14.2995 17.9013 9.88306C17.9013 5.4666 14.3083 1.87357 9.89185 1.87357ZM23.7161 23.7256C24.0819 23.3598 24.0819 22.7666 23.7161 22.4008L19.524 18.2087C19.1581 17.8428 18.565 17.8428 18.1991 18.2087C17.8333 18.5745 17.8333 19.1677 18.1991 19.5335L22.3912 23.7256C22.5742 23.9085 22.8139 24 23.0537 24C23.2935 24 23.5331 23.9085 23.7161 23.7256Z" fill="#7D828D"/>
</svg>
