<svg width="20" height="19" viewBox="0 0 20 19" fill="none" xmlns="http://www.w3.org/2000/svg">
<path d="M9.3744 3.02908L9.78358 3.61301L10.1928 3.02908C11.054 1.80001 12.4239 1.01356 13.9393 1.01356C16.5043 1.01356 18.6437 3.25438 18.6437 6.09999C18.6437 7.23835 18.4736 8.2888 18.1784 9.26275L18.1775 9.26585C17.4702 11.6557 16.0222 13.5779 14.4638 15.0078C12.9023 16.4406 11.2548 17.3562 10.1933 17.7418L10.1933 17.7418L10.1877 17.7439C10.1022 17.7761 9.95575 17.8018 9.78358 17.8018C9.61142 17.8018 9.46498 17.7761 9.37947 17.7439L9.37948 17.7439L9.37388 17.7418C8.3124 17.3562 6.66491 16.4406 5.10339 15.0078C3.545 13.5779 2.09697 11.6557 1.38964 9.26585L1.38965 9.26585L1.38871 9.26276C1.09357 8.2888 0.923477 7.23835 0.923477 6.09999C0.923477 3.25438 3.06291 1.01356 5.62785 1.01356C7.14323 1.01356 8.51314 1.80001 9.3744 3.02908Z" stroke="black" stroke-width="0.999297"/>
</svg>
