<svg width="35" height="31" viewBox="0 0 35 31" fill="none" xmlns="http://www.w3.org/2000/svg">
<path d="M33.9561 6.3551C33.4194 5.11244 32.6455 3.98635 31.6778 3.03987C30.7094 2.09057 29.5676 1.33617 28.3146 0.817704C27.0152 0.27795 25.6216 0.00167254 24.2146 0.00491096C22.2406 0.00491096 20.3147 0.545438 18.6411 1.56643C18.2407 1.81067 17.8604 2.07893 17.5 2.37122C17.1397 2.07893 16.7593 1.81067 16.3589 1.56643C14.6853 0.545438 12.7594 0.00491096 10.7854 0.00491096C9.36406 0.00491096 7.98672 0.277177 6.68545 0.817704C5.42822 1.33821 4.29512 2.08694 3.32217 3.03987C2.35321 3.98528 1.57918 5.11164 1.04395 6.3551C0.487402 7.64837 0.203125 9.0217 0.203125 10.4351C0.203125 11.7684 0.475391 13.1577 1.01592 14.5711C1.46836 15.7523 2.11699 16.9775 2.9458 18.2147C4.25908 20.1726 6.06484 22.2146 8.30703 24.2846C12.0227 27.7159 15.7022 30.0862 15.8584 30.1823L16.8073 30.7909C17.2277 31.0592 17.7683 31.0592 18.1887 30.7909L19.1376 30.1823C19.2938 30.0822 22.9693 27.7159 26.689 24.2846C28.9312 22.2146 30.7369 20.1726 32.0502 18.2147C32.879 16.9775 33.5316 15.7523 33.9801 14.5711C34.5206 13.1577 34.7929 11.7684 34.7929 10.4351C34.7969 9.0217 34.5126 7.64837 33.9561 6.3551ZM17.5 27.6238C17.5 27.6238 3.24609 18.4909 3.24609 10.4351C3.24609 6.3551 6.62139 3.04788 10.7854 3.04788C13.7123 3.04788 16.2508 4.68147 17.5 7.0678C18.7492 4.68147 21.2877 3.04788 24.2146 3.04788C28.3786 3.04788 31.7539 6.3551 31.7539 10.4351C31.7539 18.4909 17.5 27.6238 17.5 27.6238Z" fill="#737373"/>
</svg>
