<svg width="84" height="84" viewBox="0 0 84 84" fill="none" xmlns="http://www.w3.org/2000/svg">
<circle cx="42" cy="42" r="42" fill="#EFEFEF"/>
<g clip-path="url(#clip0_99_825)">
<path d="M68.3204 55.272C69.1373 55.8277 67.536 54.7166 68.3204 55.272C69.0394 55.7296 69.3008 56.6773 68.9739 57.4619C68.6798 58.1479 67.9935 58.5727 67.2418 58.5402C66.4901 58.5075 65.8366 57.9846 65.6078 57.2656C65.3791 56.5467 65.6405 55.7296 66.2614 55.3048C66.8824 54.88 67.6993 54.8473 68.3204 55.272ZM45.5093 71.9066C45.9016 71.9066 46.3264 71.9066 46.7185 71.8738C47.5356 71.8411 48.3525 71.7757 49.1369 71.6778C49.7904 71.6124 47.7971 71.8411 49.1369 71.6778C49.954 71.5797 50.6075 72.3313 50.4442 73.1482C50.3461 73.5078 50.0846 73.802 49.7579 73.9653C49.5292 74.0635 49.3002 74.0635 49.0715 74.096C48.8102 74.1287 48.516 74.1614 48.2546 74.1614C46.0977 74.3249 43.9408 74.2922 41.7838 74.0635C39.823 73.8347 37.9275 73.4751 36.0321 72.8868C34.2047 72.3324 32.4324 71.6104 30.7378 70.7301C29.0059 69.8475 27.4044 68.8019 25.8685 67.6254C24.1037 66.3181 22.5024 64.8147 21.0645 63.148C19.6265 61.514 18.3521 59.7167 17.2736 57.854C16.1623 55.9258 15.2473 53.8995 14.561 51.7753C13.842 49.6184 13.3845 47.3961 13.1231 45.1412C12.8618 42.8537 12.8618 40.5332 13.0904 38.2457C13.3191 35.9906 13.7766 33.7358 14.4956 31.5789C15.1819 29.4547 16.0644 27.4284 17.1754 25.4675C18.254 23.5394 19.5611 21.742 20.9991 20.0753C22.4436 18.4347 24.0413 16.9354 25.7704 15.5979C27.5352 14.2581 29.4307 13.0817 31.3916 12.1339C33.4176 11.1535 35.5418 10.4018 37.7315 9.84639C39.9538 9.29075 42.2413 8.9968 44.5289 8.89867C46.8272 8.83289 49.1263 8.99711 51.3919 9.38889C53.5816 9.78097 55.7383 10.402 57.8298 11.2189C59.8888 12.036 61.8496 13.0817 63.6797 14.2908C65.5099 15.5 67.2091 16.9055 68.7779 18.4741C69.4314 19.1276 70.0198 19.7812 70.4446 20.6308C70.804 21.3497 71.0002 22.1668 71.0654 22.9512C71.1636 24.5852 70.6079 26.2519 69.4969 27.4611C68.2225 28.899 66.2941 29.6834 64.3986 29.5526C63.4836 29.4872 62.5686 29.2257 61.7515 28.7682C61.3313 28.5415 60.9461 28.2554 60.6077 27.9186C60.2156 27.559 59.856 27.1342 59.464 26.7748C57.8625 25.2715 56.0324 24.0625 54.0391 23.147C51.9801 22.2323 49.7904 21.6439 47.5683 21.4479C45.2808 21.2518 42.9603 21.4151 40.738 21.9708C38.5811 22.5264 36.5223 23.4414 34.6268 24.6506C32.7968 25.8598 31.1626 27.363 29.8228 29.0624C28.4502 30.7945 27.3717 32.7554 26.6202 34.8469C25.8683 36.9711 25.4762 39.2261 25.4762 41.481C25.4762 43.7685 25.8358 46.0235 26.5875 48.1805C27.3065 50.272 28.3848 52.2001 29.7246 53.9322C31.0647 55.6644 32.6987 57.1675 34.5287 58.3767C36.3969 59.6216 38.4636 60.5389 40.6401 61.0893C42.8622 61.6776 45.1827 61.8409 47.4702 61.6449C49.6925 61.4486 51.8822 60.893 53.9409 59.9782C54.1697 59.8801 54.3657 59.7494 54.5945 59.7167C54.7905 59.684 54.9868 59.684 55.1828 59.7494C55.5749 59.8801 55.8689 60.1742 55.9672 60.5663C56.0651 60.9259 55.9997 61.3507 55.7383 61.6449C55.6076 61.8082 55.4116 61.9061 55.2156 62.0043C54.9541 62.1024 54.7253 62.233 54.4636 62.3312C52.3724 63.2135 50.1827 63.7691 47.9277 63.9651C45.6402 64.1939 43.3199 64.063 41.0976 63.6055C41.3917 63.9324 41.6532 64.292 41.9145 64.6514C42.1762 65.0141 42.427 65.3846 42.6664 65.7625C42.6988 65.8279 42.797 65.9587 42.797 65.9587H42.8949C43.0257 65.9587 43.1236 65.9912 43.2545 65.9912C43.4832 66.0239 43.712 66.0239 43.9405 66.0566C44.8885 66.1221 45.8362 66.1221 46.7839 66.0894C48.6467 65.9912 50.5094 65.73 52.3069 65.207C54.0391 64.7168 55.7383 64.0303 57.3398 63.1807C58.9083 62.3312 60.379 61.3507 61.7188 60.1742L62.6992 59.2917C62.9934 59.0305 63.2222 58.7036 63.5818 58.5402C64.2026 58.2134 64.9543 58.3115 65.4772 58.7363C66.0326 59.1611 66.2614 59.8801 66.098 60.5663C65.9999 60.9259 65.8368 61.2199 65.5751 61.4486C65.2485 61.7428 64.9543 62.0697 64.6274 62.3639C63.3203 63.5403 61.9151 64.6187 60.4117 65.5337C58.8756 66.4814 57.2746 67.2658 55.5749 67.8867C53.8428 68.5404 52.0782 68.998 50.2479 69.2921C48.3852 69.5861 46.4897 69.7169 44.5943 69.6515C44.7579 70.0763 44.8885 70.5011 45.0191 70.9259C45.0845 71.1222 45.1172 71.3182 45.1827 71.5142C45.1827 71.5797 45.2478 71.743 45.2478 71.743L45.5093 71.9066ZM63.7451 65.8933C64.268 65.501 60.379 68.3769 63.7451 65.8933C63.9086 65.7625 64.1372 65.6646 64.3986 65.5991C64.8234 65.5664 65.2812 65.7952 65.5099 66.1875C65.7387 66.5796 65.7387 67.1025 65.4772 67.4619C65.3136 67.6906 65.0849 67.8215 64.8889 67.9848C64.6601 68.1484 64.3986 68.3117 64.1699 68.475C63.7032 68.8097 63.2235 69.1259 62.7319 69.4227C60.7711 70.6319 58.6796 71.6451 56.5227 72.3968C55.4425 72.7878 54.3404 73.1151 53.222 73.377C52.7317 73.4751 52.2415 73.4097 51.9149 72.9849C51.6207 72.6255 51.5553 72.1353 51.784 71.7105C51.8822 71.5142 52.0128 71.3509 52.2088 71.2528C52.4376 71.1222 52.699 71.0895 52.9278 71.024C53.4834 70.8934 54.0391 70.7301 54.5945 70.5665C55.7058 70.2071 56.7843 69.8148 57.83 69.3573C59.9215 68.4423 61.9151 67.2658 63.7451 65.8931V65.8933ZM67.6668 62.3639C68.1243 61.8736 67.242 62.8214 67.6668 62.3639C68.1895 61.8082 69.1373 61.9064 69.5296 62.5599C69.6929 62.8211 69.7256 63.1807 69.6602 63.4749C69.5623 63.867 69.2681 64.1285 69.0066 64.3899C68.7073 64.722 68.391 65.0383 68.0589 65.3377C67.7647 65.5991 67.4054 65.7625 66.9803 65.6973C66.2943 65.5991 65.8366 64.8802 66.0326 64.1939C66.1635 63.8343 66.4574 63.6055 66.7189 63.3443C67.046 63.0172 67.3727 62.6905 67.6668 62.3639ZM60.2484 55.5008C60.7059 55.0433 59.1044 56.71 60.2484 55.5008C60.6404 55.1087 61.2615 55.0433 61.7515 55.3048C62.2417 55.5989 62.4378 56.2198 62.2417 56.7427C62.1111 57.0042 61.9151 57.2002 61.7188 57.3963C61.49 57.625 61.294 57.854 61.0652 58.05C60.6732 58.4094 60.2808 58.769 59.8888 59.0957C59.464 59.4226 59.0065 59.7494 58.549 60.0761C58.0587 60.4357 57.4704 60.4684 57.0129 60.0761C56.6208 59.7494 56.4899 59.1938 56.6862 58.7363C56.7823 58.511 56.9411 58.3182 57.1437 58.1807C57.3725 58.0171 57.6339 57.8213 57.8627 57.6577C58.7123 57.0042 59.4967 56.2852 60.2484 55.5008ZM45.6402 33.8664C46.0322 33.8664 46.4246 33.8991 46.8493 33.8991C48.3852 34.1604 49.8559 34.8796 50.9996 35.9579C52.1109 37.0365 52.9278 38.4744 53.222 40.0105C53.5489 41.6118 53.3526 43.2785 52.699 44.7492C52.0556 46.1735 50.996 47.3697 49.6598 48.1805C48.2808 49.0308 46.6668 49.4199 45.0518 49.2915C43.4832 49.1936 41.9472 48.5725 40.738 47.5596C39.5255 46.5746 38.6467 45.2392 38.2217 43.736C37.7642 42.1672 37.8296 40.4678 38.3852 38.9647C38.9079 37.494 39.8884 36.2194 41.163 35.3044C42.4701 34.3567 44.0389 33.8664 45.6402 33.8664Z" fill="#A2222F"/>
</g>
<defs>
<clipPath id="clip0_99_825">
<rect width="58.1538" height="65.4231" fill="white" transform="translate(12.9229 8.88461)"/>
</clipPath>
</defs>
</svg>
