<svg width="151" height="50" viewBox="0 0 151 50" fill="none" xmlns="http://www.w3.org/2000/svg">
<path fill-rule="evenodd" clip-rule="evenodd" d="M109.566 5.58539C116.891 5.73281 122.714 7.18766 128.536 8.82127C147.632 14.1859 154.018 22.5095 140.933 30.6889C120.585 43.3731 73.1912 51.6746 36.4405 47.8434C28.3015 46.9991 17.2825 46.2549 9.20616 42.1315C1.69323 38.2976 2.00627 33.7399 5.44969 29.5203C8.95573 25.1939 15.7174 21.2121 21.1016 18.6526C44.6421 7.48544 91.7857 -2.66399 134.422 2.68671C135.298 2.7898 136.175 2.61251 136.425 2.29073C136.676 1.96895 136.237 1.62391 135.423 1.52082C91.535 -3.98587 42.8889 6.3815 18.6597 17.8741C11.9607 21.0657 3.19606 26.3934 0.691755 31.9057C-0.998653 35.6732 0.190649 39.5245 6.70185 42.8747C15.2791 47.267 26.9869 48.1272 35.6267 49.0265C73.567 52.9835 122.588 44.4393 143.562 31.339C157.649 22.5477 150.887 13.5928 130.352 7.82656C124.091 6.0541 117.705 4.52235 109.754 4.36269C108.877 4.3453 108.126 4.60512 108.126 4.94257C108.064 5.28002 108.752 5.568 109.566 5.58539Z" fill="#A2222F"/>
</svg>
