<svg width="41" height="41" viewBox="0 0 41 41" fill="none" xmlns="http://www.w3.org/2000/svg">
<path d="M34 7H38.41C39.6925 7 40.75 8.0575 40.75 9.34V38.41C40.75 39.6925 39.6925 40.75 38.41 40.75H9.34C8.0575 40.75 7 39.6925 7 38.41V34H2.59C1.3075 34 0.25 32.9425 0.25 31.66V2.59C0.25 1.3075 1.3075 0.25 2.59 0.25H31.66C32.9425 0.25 34 1.3075 34 2.59V7ZM4.75 29.5H29.5V4.75H4.75V29.5ZM16 10.375C16 8.5075 14.4925 7 12.625 7C10.7575 7 9.25 8.5075 9.25 10.375C9.25 12.2425 10.7575 13.75 12.625 13.75C14.4925 13.75 16 12.2425 16 10.375ZM20.5 20.5C20.5 20.5 22.75 9.25 27.25 9.25V27.25H7V13.75C11.5 13.75 11.5 20.5 11.5 20.5C11.5 20.5 12.2425 16 16 16C19.7575 16 20.5 20.5 20.5 20.5ZM36.25 36.25V11.5H34V31.66C34 32.9425 32.9425 34 31.66 34H11.5V36.25H36.25Z" fill="black"/>
</svg>
