<svg width="55" height="55" viewBox="0 0 55 55" fill="none" xmlns="http://www.w3.org/2000/svg">
<path d="M54.8229 16.2335C54.7921 13.9242 54.359 11.6378 53.5432 9.47666C52.8356 7.65375 51.755 5.99822 50.3704 4.61585C48.9857 3.23348 47.3274 2.15466 45.5014 1.44833C43.3645 0.647502 41.107 0.214479 38.825 0.167702C35.8868 0.0365896 34.9553 0 27.4969 0C20.0386 0 19.0826 2.04459e-07 16.1659 0.167702C13.8849 0.214823 11.6284 0.64784 9.49245 1.44833C7.66621 2.15417 6.00767 3.23281 4.62294 4.61525C3.2382 5.99768 2.15776 7.65347 1.45074 9.47666C0.646974 11.6084 0.21417 13.8616 0.171035 16.139C0.0397046 19.0753 0 20.0053 0 27.4512C0 34.8972 -2.27556e-08 35.8485 0.171035 38.7634C0.216848 41.0442 0.64749 43.2944 1.45074 45.4319C2.15894 47.2545 3.24019 48.9096 4.62539 50.2915C6.01059 51.6733 7.66929 52.7515 9.4955 53.4572C11.6256 54.2902 13.8825 54.7542 16.1689 54.8293C19.1101 54.9604 20.0417 55 27.5 55C34.9584 55 35.9143 55 38.8311 54.8293C41.113 54.7844 43.3707 54.3524 45.5076 53.5517C47.333 52.8445 48.9909 51.7654 50.3755 50.3832C51.76 49.0009 52.8409 47.3458 53.5493 45.5233C54.3525 43.389 54.7832 41.1387 54.829 38.8549C54.9603 35.9217 55 34.9917 55 27.5427C54.9939 20.0967 54.9939 19.1515 54.8229 16.2335ZM27.4786 41.532C19.6782 41.532 13.3591 35.2234 13.3591 27.436C13.3591 19.6485 19.6782 13.3399 27.4786 13.3399C31.2234 13.3399 34.8147 14.825 37.4627 17.4685C40.1106 20.1121 41.5982 23.6975 41.5982 27.436C41.5982 31.1745 40.1106 34.7599 37.4627 37.4034C34.8147 40.0469 31.2234 41.532 27.4786 41.532ZM42.1602 16.1054C41.7277 16.1058 41.2994 16.0211 40.8997 15.8561C40.5001 15.691 40.137 15.4489 39.8312 15.1436C39.5254 14.8383 39.2828 14.4758 39.1175 14.0768C38.9522 13.6779 38.8673 13.2503 38.8677 12.8185C38.8677 12.387 38.9528 11.9598 39.1182 11.5612C39.2836 11.1626 39.526 10.8004 39.8316 10.4953C40.1372 10.1903 40.5 9.94827 40.8993 9.78316C41.2985 9.61805 41.7265 9.53307 42.1586 9.53307C42.5908 9.53307 43.0187 9.61805 43.418 9.78316C43.8173 9.94827 44.1801 10.1903 44.4856 10.4953C44.7912 10.8004 45.0336 11.1626 45.199 11.5612C45.3644 11.9598 45.4495 12.387 45.4495 12.8185C45.4495 14.6358 43.9774 16.1054 42.1602 16.1054Z" fill="white"/>
<path d="M27.4784 36.5923C32.5438 36.5923 36.6502 32.4928 36.6502 27.4358C36.6502 22.3788 32.5438 18.2793 27.4784 18.2793C22.413 18.2793 18.3066 22.3788 18.3066 27.4358C18.3066 32.4928 22.413 36.5923 27.4784 36.5923Z" fill="white"/>
</svg>
