<svg width="55" height="55" viewBox="0 0 55 55" fill="none" xmlns="http://www.w3.org/2000/svg">
<g clip-path="url(#clip0_99_1149)">
<path d="M46.8531 46.872H38.7183V34.1069C38.7183 31.063 38.6547 27.1511 34.4644 27.1511C30.2225 27.1511 29.5763 30.4528 29.5763 33.8817V46.8703H21.4311V20.6233H29.2548V24.2034H29.3597C30.4528 22.1358 33.1117 19.9616 37.0786 19.9616C45.3303 19.9616 46.8617 25.3945 46.8617 32.4586V46.8703L46.8531 46.872ZM12.2289 17.0362C11.6072 17.0365 10.9915 16.914 10.4172 16.676C9.84289 16.4379 9.32118 16.0889 8.88196 15.6488C8.44274 15.2088 8.09464 14.6865 7.85761 14.1117C7.62058 13.537 7.49927 12.9211 7.50062 12.2994C7.50164 11.3636 7.78011 10.4491 8.30081 9.67162C8.82151 8.8941 9.56106 8.28843 10.426 7.93119C11.2909 7.57395 12.2423 7.48118 13.1599 7.66461C14.0775 7.84805 14.9201 8.29945 15.5812 8.96174C16.2423 9.62403 16.6922 10.4675 16.8739 11.3854C17.0557 12.3034 16.9612 13.2546 16.6024 14.1189C16.2436 14.9831 15.6366 15.7216 14.8581 16.2408C14.0796 16.7601 13.1647 17.0369 12.2289 17.0362ZM16.3092 46.872H8.14687V20.625H16.3092V46.872ZM50.9369 0H4.05625C1.81672 0 0 1.77203 0 3.96516V51.0366C0 53.2297 1.81672 55.0017 4.05625 55.0017H50.9283C53.1644 55.0017 55 53.2297 55 51.0366V3.96516C55 1.77203 53.1644 0 50.9283 0H50.9369Z" fill="white"/>
</g>
<defs>
<clipPath id="clip0_99_1149">
<rect width="55" height="55" fill="white"/>
</clipPath>
</defs>
</svg>
