<svg width="40" height="40" viewBox="0 0 40 40" fill="none" xmlns="http://www.w3.org/2000/svg">
<path d="M38.0358 18.8691L21.1116 1.94492C20.4024 1.23575 19.4249 0.833252 18.4091 0.833252H4.66659C2.55825 0.833252 0.833252 2.55825 0.833252 4.66659V18.4091C0.833252 19.4249 1.23575 20.4024 1.96409 21.1116L18.8883 38.0358C20.3833 39.5308 22.8174 39.5308 24.3124 38.0358L38.0549 24.2933C39.5499 22.7983 39.5499 20.3833 38.0358 18.8691ZM9.45825 12.3333C7.86742 12.3333 6.58325 11.0491 6.58325 9.45825C6.58325 7.86742 7.86742 6.58325 9.45825 6.58325C11.0491 6.58325 12.3333 7.86742 12.3333 9.45825C12.3333 11.0491 11.0491 12.3333 9.45825 12.3333Z" fill="black"/>
</svg>
