<svg width="23" height="23" viewBox="0 0 23 23" fill="none" xmlns="http://www.w3.org/2000/svg">
<path d="M22.3173 10.8242L12.1647 0.667167C11.7393 0.24156 11.1529 0 10.5435 0H2.29957C1.03481 0 0 1.03526 0 2.30058V10.5481C0 11.1578 0.241455 11.7444 0.678373 12.17L10.831 22.3271C11.7278 23.2243 13.188 23.2243 14.0849 22.3271L22.3288 14.0795C23.2256 13.1823 23.2256 11.7329 22.3173 10.8242ZM5.17403 6.90173C4.21971 6.90173 3.44935 6.13103 3.44935 5.17629C3.44935 4.22156 4.21971 3.45086 5.17403 3.45086C6.12835 3.45086 6.8987 4.22156 6.8987 5.17629C6.8987 6.13103 6.12835 6.90173 5.17403 6.90173Z" fill="black"/>
</svg>
