<svg width="189" height="30" viewBox="0 0 189 30" fill="none" xmlns="http://www.w3.org/2000/svg">
<path d="M0.256 29V24.104H2.992V6.2H0.256V1.256H26.368V11.048H21.328V6.2H11.152V12.488H15.376V9.8H19.408V19.88H15.376V17.096H11.152V24.104H14.224V29H0.256ZM35.1689 29.48C33.2169 29.48 31.6649 28.968 30.5129 27.944C29.3609 26.92 28.7849 25.56 28.7849 23.864C28.7849 22.424 29.1369 21.272 29.8409 20.408C30.5769 19.512 31.5209 18.872 32.6729 18.488C33.8569 18.104 35.1049 17.912 36.4169 17.912C37.5049 17.912 38.5129 18.008 39.4409 18.2C40.3689 18.392 41.1369 18.632 41.7449 18.92L40.6409 19.16V17.576C40.6409 16.36 40.3209 15.464 39.6809 14.888C39.0729 14.28 38.1769 13.976 36.9929 13.976C36.0969 13.976 35.1369 14.104 34.1129 14.36C33.1209 14.616 31.9689 15.032 30.6569 15.608L29.0729 11.528C30.6729 10.792 32.2729 10.248 33.8729 9.896C35.4729 9.512 37.0889 9.32 38.7209 9.32C40.6089 9.32 42.2089 9.64 43.5209 10.28C44.8649 10.888 45.8729 11.784 46.5449 12.968C47.2489 14.12 47.6009 15.512 47.6009 17.144V24.776H49.9049V29H41.7449L40.7849 26.024H42.5129C41.4569 27.176 40.3369 28.04 39.1529 28.616C37.9689 29.192 36.6409 29.48 35.1689 29.48ZM37.6169 25.784C38.2889 25.784 38.9609 25.624 39.6329 25.304C40.3049 24.984 40.9449 24.456 41.5529 23.72L40.6409 25.496V20.84L41.5529 21.848C41.1049 21.592 40.5769 21.384 39.9689 21.224C39.3929 21.064 38.7529 20.984 38.0489 20.984C37.2809 20.984 36.5929 21.176 35.9849 21.56C35.4089 21.912 35.1209 22.536 35.1209 23.432C35.1209 24.168 35.3289 24.744 35.7449 25.16C36.1929 25.576 36.8169 25.784 37.6169 25.784ZM51.268 29V24.776H53.764V13.976H51.268V9.8H60.388L60.532 12.152L58.756 12.824C60.068 11.736 61.412 10.888 62.788 10.28C64.164 9.64 65.604 9.32 67.108 9.32C69.188 9.32 70.804 9.96 71.956 11.24C73.108 12.488 73.684 14.072 73.684 15.992V24.776H76.132V29H64.516V24.776H66.532V17.144C66.532 16.184 66.308 15.448 65.86 14.936C65.412 14.392 64.788 14.12 63.988 14.12C63.22 14.12 62.452 14.296 61.684 14.648C60.916 14.968 60.164 15.416 59.428 15.992L60.916 13.064V24.776H62.98V29H51.268ZM85.8756 29C83.8916 29 82.3556 28.552 81.2676 27.656C80.2116 26.728 79.6836 25.272 79.6836 23.288V13.976H77.2836V9.8H79.6356V3.56L86.7876 2.36V9.8H91.1076V13.976H86.7876V22.088C86.7876 23.016 86.9476 23.672 87.2676 24.056C87.6196 24.44 88.2116 24.632 89.0436 24.632H91.2516V29H85.8756ZM100.138 29.48C98.1856 29.48 96.6336 28.968 95.4816 27.944C94.3296 26.92 93.7536 25.56 93.7536 23.864C93.7536 22.424 94.1056 21.272 94.8096 20.408C95.5456 19.512 96.4896 18.872 97.6416 18.488C98.8256 18.104 100.074 17.912 101.386 17.912C102.474 17.912 103.482 18.008 104.41 18.2C105.338 18.392 106.106 18.632 106.714 18.92L105.61 19.16V17.576C105.61 16.36 105.29 15.464 104.65 14.888C104.042 14.28 103.146 13.976 101.962 13.976C101.066 13.976 100.106 14.104 99.0816 14.36C98.0896 14.616 96.9376 15.032 95.6256 15.608L94.0416 11.528C95.6416 10.792 97.2416 10.248 98.8416 9.896C100.442 9.512 102.058 9.32 103.69 9.32C105.578 9.32 107.178 9.64 108.49 10.28C109.834 10.888 110.842 11.784 111.514 12.968C112.218 14.12 112.57 15.512 112.57 17.144V24.776H114.874V29H106.714L105.754 26.024H107.482C106.426 27.176 105.306 28.04 104.122 28.616C102.938 29.192 101.61 29.48 100.138 29.48ZM102.586 25.784C103.258 25.784 103.93 25.624 104.602 25.304C105.274 24.984 105.914 24.456 106.522 23.72L105.61 25.496V20.84L106.522 21.848C106.074 21.592 105.546 21.384 104.938 21.224C104.362 21.064 103.722 20.984 103.018 20.984C102.25 20.984 101.562 21.176 100.954 21.56C100.378 21.912 100.09 22.536 100.09 23.432C100.09 24.168 100.298 24.744 100.714 25.16C101.162 25.576 101.786 25.784 102.586 25.784ZM132.317 29.48C130.973 29.48 129.613 29.272 128.237 28.856C126.861 28.44 125.645 27.832 124.589 27.032C123.533 26.232 122.829 25.272 122.477 24.152H123.533V29H118.157V19.544H122.957C123.405 20.6 124.013 21.528 124.781 22.328C125.549 23.128 126.445 23.752 127.469 24.2C128.493 24.648 129.629 24.872 130.877 24.872C131.933 24.872 132.765 24.648 133.373 24.2C134.013 23.72 134.333 23.016 134.333 22.088C134.333 21.416 134.189 20.872 133.901 20.456C133.613 20.008 133.133 19.656 132.461 19.4C131.821 19.112 130.973 18.856 129.917 18.632L126.749 18.008C123.773 17.368 121.549 16.328 120.077 14.888C118.637 13.448 117.917 11.496 117.917 9.032C117.917 7.4 118.301 5.96 119.069 4.712C119.837 3.464 120.909 2.504 122.285 1.832C123.693 1.128 125.325 0.776 127.181 0.776C129.357 0.776 131.229 1.16 132.797 1.928C134.365 2.696 135.629 3.8 136.589 5.24H135.485V1.256H140.525V9.368H135.917C135.597 8.728 135.133 8.104 134.525 7.496C133.949 6.888 133.229 6.392 132.365 6.008C131.501 5.592 130.461 5.384 129.245 5.384C128.221 5.384 127.421 5.608 126.845 6.056C126.269 6.472 125.981 7.08 125.981 7.88C125.981 8.776 126.381 9.48 127.181 9.992C127.981 10.504 129.277 10.936 131.069 11.288L132.749 11.624C134.861 12.008 136.589 12.584 137.933 13.352C139.277 14.088 140.269 15.064 140.909 16.28C141.581 17.464 141.917 18.936 141.917 20.696C141.917 22.52 141.517 24.088 140.717 25.4C139.917 26.68 138.797 27.688 137.357 28.424C135.949 29.128 134.269 29.48 132.317 29.48ZM155.732 29.528C153.524 29.528 151.588 29.128 149.924 28.328C148.292 27.528 147.012 26.376 146.084 24.872C145.156 23.336 144.692 21.512 144.692 19.4C144.692 17.384 145.14 15.624 146.036 14.12C146.932 12.616 148.164 11.432 149.732 10.568C151.332 9.704 153.156 9.272 155.204 9.272C157.22 9.272 158.932 9.704 160.34 10.568C161.78 11.4 162.868 12.568 163.604 14.072C164.372 15.544 164.756 17.256 164.756 19.208V20.504H148.628L148.676 17.48H158.18C158.18 16.712 158.052 16.072 157.796 15.56C157.572 15.016 157.22 14.6 156.74 14.312C156.26 14.024 155.668 13.88 154.964 13.88C154.164 13.88 153.492 14.088 152.948 14.504C152.404 14.888 151.988 15.464 151.7 16.232C151.444 16.968 151.316 17.848 151.316 18.872C151.316 20.056 151.54 21.048 151.988 21.848C152.468 22.616 153.108 23.208 153.908 23.624C154.708 24.008 155.636 24.2 156.692 24.2C157.844 24.2 158.932 24.008 159.956 23.624C160.98 23.24 161.876 22.744 162.644 22.136L164.612 26.36C163.524 27.32 162.228 28.088 160.724 28.664C159.22 29.24 157.556 29.528 155.732 29.528ZM173.591 29.48C171.639 29.48 170.087 28.968 168.935 27.944C167.783 26.92 167.207 25.56 167.207 23.864C167.207 22.424 167.559 21.272 168.263 20.408C168.999 19.512 169.943 18.872 171.095 18.488C172.279 18.104 173.527 17.912 174.839 17.912C175.927 17.912 176.935 18.008 177.863 18.2C178.791 18.392 179.559 18.632 180.167 18.92L179.063 19.16V17.576C179.063 16.36 178.743 15.464 178.103 14.888C177.495 14.28 176.599 13.976 175.415 13.976C174.519 13.976 173.559 14.104 172.535 14.36C171.543 14.616 170.391 15.032 169.079 15.608L167.495 11.528C169.095 10.792 170.695 10.248 172.295 9.896C173.895 9.512 175.511 9.32 177.143 9.32C179.031 9.32 180.631 9.64 181.943 10.28C183.287 10.888 184.295 11.784 184.967 12.968C185.671 14.12 186.023 15.512 186.023 17.144V24.776H188.327V29H180.167L179.207 26.024H180.935C179.879 27.176 178.759 28.04 177.575 28.616C176.391 29.192 175.063 29.48 173.591 29.48ZM176.039 25.784C176.711 25.784 177.383 25.624 178.055 25.304C178.727 24.984 179.367 24.456 179.975 23.72L179.063 25.496V20.84L179.975 21.848C179.527 21.592 178.999 21.384 178.391 21.224C177.815 21.064 177.175 20.984 176.471 20.984C175.703 20.984 175.015 21.176 174.407 21.56C173.831 21.912 173.543 22.536 173.543 23.432C173.543 24.168 173.751 24.744 174.167 25.16C174.615 25.576 175.239 25.784 176.039 25.784Z" fill="black"/>
</svg>
