<svg width="20" height="20" viewBox="0 0 20 20" fill="none" xmlns="http://www.w3.org/2000/svg">
<path d="M18.7415 15H10C9.64879 15 9.35285 14.8796 9.1122 14.6387C8.87155 14.3978 8.75123 14.1016 8.75123 13.75C8.75123 13.3984 8.87155 13.1022 9.1122 12.8613C9.35285 12.6204 9.64879 12.5 10 12.5H18.7415C19.0927 12.5 19.3886 12.6204 19.6293 12.8613C19.8699 13.1022 19.9902 13.3984 19.9902 13.75C19.9902 14.1016 19.8699 14.3978 19.6293 14.6387C19.3886 14.8796 19.0927 15 18.7415 15ZM18.7415 7.5H10C9.64879 7.5 9.35285 7.3763 9.1122 7.12891C8.87155 6.88151 8.75123 6.58529 8.75123 6.24023C8.75123 5.89518 8.87155 5.60221 9.1122 5.36133C9.35285 5.12044 9.64879 5 10 5H18.7415C19.0927 5 19.3886 5.12044 19.6293 5.36133C19.8699 5.60221 19.9902 5.89518 19.9902 6.24023C19.9902 6.58529 19.8699 6.88151 19.6293 7.12891C19.3886 7.3763 19.0927 7.5 18.7415 7.5ZM18.7415 2.5H10C9.64879 2.5 9.35285 2.3763 9.1122 2.12891C8.87155 1.88151 8.75123 1.58529 8.75123 1.24023C8.75123 0.895182 8.87155 0.602214 9.1122 0.361328C9.35285 0.120443 9.64879 0 10 0H18.7415C19.0927 0 19.3886 0.120443 19.6293 0.361328C19.8699 0.602214 19.9902 0.895182 19.9902 1.24023C19.9902 1.58529 19.8699 1.88151 19.6293 2.12891C19.3886 2.3763 19.0927 2.5 18.7415 2.5ZM6.25367 20H1.25855C0.907326 20 0.611391 19.8796 0.370741 19.6387C0.130091 19.3978 0.00976563 19.1016 0.00976562 18.75V13.75C0.00976562 13.3984 0.130091 13.1022 0.370741 12.8613C0.611391 12.6204 0.907326 12.5 1.25855 12.5H6.25367C6.59188 12.5 6.88456 12.6204 7.13171 12.8613C7.37887 13.1022 7.50245 13.3984 7.50245 13.75V18.75C7.50245 19.1016 7.37887 19.3978 7.13171 19.6387C6.88456 19.8796 6.59188 20 6.25367 20ZM6.25367 7.5H1.25855C0.907326 7.5 0.611391 7.3763 0.370741 7.12891C0.130091 6.88151 0.00976562 6.58854 0.00976562 6.25V1.25C0.00976562 0.898438 0.130091 0.602214 0.370741 0.361328C0.611391 0.120443 0.907326 0 1.25855 0H6.25367C6.59188 0 6.88456 0.120443 7.13171 0.361328C7.37887 0.602214 7.50245 0.898438 7.50245 1.25V6.25C7.50245 6.58854 7.37887 6.88151 7.13171 7.12891C6.88456 7.3763 6.59188 7.5 6.25367 7.5ZM10 17.5H18.7415C19.0927 17.5 19.3886 17.6204 19.6293 17.8613C19.8699 18.1022 19.9902 18.3984 19.9902 18.75C19.9902 19.1016 19.8667 19.3978 19.6195 19.6387C19.3724 19.8796 19.0797 20 18.7415 20H10C9.64879 20 9.35285 19.8796 9.1122 19.6387C8.87155 19.3978 8.75123 19.1016 8.75123 18.75C8.75123 18.3984 8.87155 18.1022 9.1122 17.8613C9.35285 17.6204 9.64879 17.5 10 17.5Z" fill="black"/>
</svg>
