<svg width="29" height="16" viewBox="0 0 29 16" fill="none" xmlns="http://www.w3.org/2000/svg">
<path d="M25.5 7.5C25.1694 7.50236 24.842 7.56431 24.5334 7.68288L21.2361 4.98375C21.3172 4.6895 21.375 4.38425 21.375 4.0625C21.375 2.15675 19.8433 0.625 17.9375 0.625C16.0317 0.625 14.5 2.15675 14.5 4.0625C14.5 4.607 14.6375 5.11438 14.8603 5.57088L10.8604 10.2981C10.7003 10.2682 10.5379 10.2521 10.375 10.25C10.1289 10.25 9.8965 10.2913 9.671 10.3518L6.14688 6.82762C6.20875 6.6035 6.25 6.37113 6.25 6.125C6.25 4.6015 5.0235 3.375 3.5 3.375C1.9765 3.375 0.75 4.6015 0.75 6.125C0.75 7.6485 1.9765 8.875 3.5 8.875C3.74612 8.875 3.9785 8.83375 4.204 8.77325L7.72812 12.2974C7.66203 12.5258 7.62734 12.7622 7.625 13C7.625 14.5235 8.8515 15.75 10.375 15.75C11.8985 15.75 13.125 14.5235 13.125 13C13.125 12.6741 13.059 12.3675 12.9559 12.0774L16.9613 7.34462C17.2734 7.43538 17.5965 7.5 17.9375 7.5C18.4801 7.497 19.0142 7.36454 19.4954 7.11362L22.794 9.81275C22.7681 9.95715 22.7534 10.1033 22.75 10.25C22.75 11.7735 23.9765 13 25.5 13C27.0235 13 28.25 11.7735 28.25 10.25C28.25 8.7265 27.0235 7.5 25.5 7.5Z" fill="black"/>
</svg>
