<svg width="54" height="54" viewBox="0 0 54 54" fill="none" xmlns="http://www.w3.org/2000/svg">
<path d="M47.1825 2.25H40.5675C37.71 2.25 36 3.96 36 6.8175V13.4325C36 16.29 37.71 18 40.5675 18H47.1825C50.04 18 51.75 16.29 51.75 13.4325V6.8175C51.75 3.96 50.04 2.25 47.1825 2.25ZM48.6675 7.7625L43.335 13.995C43.1325 14.2425 42.8175 14.4 42.5025 14.4C42.48 14.4 42.48 14.4 42.4575 14.4C42.1425 14.4 41.85 14.2875 41.625 14.0625L39.15 11.6325C38.7 11.1825 38.7 10.44 39.15 9.99C39.6 9.54 40.3425 9.5175 40.7925 9.99L42.3675 11.5425L46.8675 6.2775C47.295 5.7825 48.015 5.7375 48.51 6.1425C49.0275 6.5475 49.0725 7.29 48.6675 7.7625Z" fill="white"/>
<path d="M20.25 23.355C23.2075 23.355 25.605 20.9575 25.605 18C25.605 15.0425 23.2075 12.645 20.25 12.645C17.2925 12.645 14.895 15.0425 14.895 18C14.895 20.9575 17.2925 23.355 20.25 23.355Z" fill="white"/>
<path d="M47.1825 18H46.125V28.3725L45.8325 28.125C44.0775 26.6175 41.2425 26.6175 39.4875 28.125L30.1275 36.1575C28.3725 37.665 25.5375 37.665 23.7825 36.1575L23.0175 35.5275C21.42 34.1325 18.8775 33.9975 17.0775 35.2125L8.6625 40.86C8.1675 39.6 7.875 38.1375 7.875 36.4275V17.5725C7.875 11.2275 11.2275 7.875 17.5725 7.875H36V6.8175C36 5.9175 36.1575 5.1525 36.5175 4.5H17.5725C9.3825 4.5 4.5 9.3825 4.5 17.5725V36.4275C4.5 38.88 4.9275 41.0175 5.76 42.8175C7.695 47.0925 11.835 49.5 17.5725 49.5H36.4275C44.6175 49.5 49.5 44.6175 49.5 36.4275V17.4825C48.8475 17.8425 48.0825 18 47.1825 18Z" fill="white"/>
</svg>
