<svg width="24" height="25" viewBox="0 0 24 25" fill="none" xmlns="http://www.w3.org/2000/svg">
<path d="M19.7538 17.4C19.2461 17.4019 18.744 17.5064 18.2776 17.7072C17.8113 17.908 17.3903 18.201 17.04 18.5685L7.85061 13.97C8.07666 13.2846 8.07666 12.5447 7.85061 11.8592L17.0551 7.17785C17.7144 7.87261 18.6084 8.29742 19.5635 8.36972C20.5186 8.44201 21.4664 8.15662 22.2227 7.56901C22.9791 6.9814 23.49 6.13356 23.656 5.19027C23.8221 4.24699 23.6315 3.27565 23.1213 2.46505C22.6111 1.65445 21.8178 1.06251 20.8954 0.804275C19.9731 0.546039 18.9877 0.639959 18.1308 1.06778C17.2739 1.4956 16.6066 2.22676 16.2587 3.11914C15.9108 4.01152 15.9072 5.00138 16.2485 5.89631L7.13445 10.5325C6.64223 9.93047 5.97586 9.49546 5.2267 9.28705C4.47755 9.07864 3.68226 9.10704 2.94988 9.36835C2.21749 9.62965 1.58385 10.1111 1.13581 10.7466C0.687769 11.3822 0.447266 12.1408 0.447266 12.9184C0.447266 13.696 0.687769 14.4546 1.13581 15.0901C1.58385 15.7257 2.21749 16.2071 2.94988 16.4684C3.68226 16.7297 4.47755 16.7581 5.2267 16.5497C5.97586 16.3413 6.64223 15.9063 7.13445 15.3043L16.2258 19.8802C16.0722 20.2926 15.9931 20.7291 15.9921 21.1692C15.9921 21.9147 16.2132 22.6435 16.6274 23.2633C17.0415 23.8831 17.6302 24.3663 18.319 24.6515C19.0077 24.9368 19.7656 25.0115 20.4967 24.866C21.2279 24.7206 21.8995 24.3616 22.4266 23.8345C22.9538 23.3073 23.3127 22.6357 23.4582 21.9046C23.6036 21.1734 23.529 20.4155 23.2437 19.7268C22.9584 19.0381 22.4753 18.4494 21.8554 18.0352C21.2356 17.6211 20.5069 17.4 19.7614 17.4H19.7538Z" fill="#A8A8A8"/>
</svg>
