<svg width="54" height="54" viewBox="0 0 54 54" fill="none" xmlns="http://www.w3.org/2000/svg">
<path d="M36 19.6875C35.0775 19.6875 34.3125 18.9225 34.3125 18V10.125C34.3125 7.695 32.805 6.1875 30.375 6.1875H23.625C21.195 6.1875 19.6875 7.695 19.6875 10.125V18C19.6875 18.9225 18.9225 19.6875 18 19.6875C17.0775 19.6875 16.3125 18.9225 16.3125 18V10.125C16.3125 5.8275 19.3275 2.8125 23.625 2.8125H30.375C34.6725 2.8125 37.6875 5.8275 37.6875 10.125V18C37.6875 18.9225 36.9225 19.6875 36 19.6875Z" fill="white"/>
<path d="M17.9999 40.005C17.0774 40.005 16.3124 39.24 16.3124 38.3175C16.3124 37.3725 17.0774 36.63 17.9999 36.63H44.4599C45.1349 36.63 45.6524 36.045 45.5849 35.37L44.0549 22.5675C43.5149 18.2025 42.7499 14.625 35.0999 14.625H18.8999C11.2499 14.625 10.4849 18.2025 9.96739 22.5675L7.94239 39.4425C7.28989 44.9775 8.99989 49.5 16.8974 49.5H37.1024C44.2124 49.5 46.3049 45.8325 46.1924 41.0625C46.1699 40.455 45.6749 40.005 45.0674 40.005H17.9999Z" fill="white"/>
</svg>
