<svg width="88" height="127" viewBox="0 0 88 127" fill="none" xmlns="http://www.w3.org/2000/svg">
<path fill-rule="evenodd" clip-rule="evenodd" d="M24 23.1893L23.7706 29.414C23.0922 47.8195 8.40584 62.5803 -9.89779 63.253L-16.6175 63.5L-9.89778 63.747C8.40585 64.4197 23.0922 79.1805 23.7706 97.586L24 103.811L24.2294 97.586C24.9078 79.1805 39.5941 64.4197 57.8978 63.747L64.6174 63.5L57.8978 63.253C39.5941 62.5803 24.9078 47.8195 24.2294 29.414L24 23.1893ZM23.1477 6.39021e-09L24.8523 0L25.9341 29.3505C26.5793 46.8581 40.5493 60.8989 57.9601 61.5388L88 62.6429V64.3571L57.9601 65.4612C40.5493 66.1011 26.5793 80.1419 25.9341 97.6495L24.8523 127H23.1477L22.0659 97.6495C21.4206 80.1419 7.45068 66.1011 -9.96009 65.4612L-40 64.3571L-40 62.6429L-9.9601 61.5388C7.45068 60.8989 21.4206 46.8581 22.0659 29.3505L23.1477 6.39021e-09Z" fill="white"/>
</svg>
