<svg width="95" height="127" viewBox="0 0 95 127" fill="none" xmlns="http://www.w3.org/2000/svg">
<path fill-rule="evenodd" clip-rule="evenodd" d="M64 23.1893L63.7706 29.414C63.0922 47.8195 48.4058 62.5803 30.1022 63.253L23.3825 63.5L30.1022 63.747C48.4058 64.4197 63.0922 79.1805 63.7706 97.586L64 103.811L64.2294 97.586C64.9078 79.1805 79.5941 64.4197 97.8978 63.747L104.617 63.5L97.8978 63.253C79.5941 62.5803 64.9078 47.8195 64.2294 29.414L64 23.1893ZM63.1477 6.39021e-09L64.8523 0L65.9341 29.3505C66.5793 46.8581 80.5493 60.8989 97.9601 61.5388L128 62.6429V64.3571L97.9601 65.4612C80.5493 66.1011 66.5793 80.1419 65.9341 97.6495L64.8523 127H63.1477L62.0659 97.6495C61.4206 80.1419 47.4507 66.1011 30.0399 65.4612L9.5321e-09 64.3571L0 62.6429L30.0399 61.5388C47.4507 60.8989 61.4206 46.8581 62.0659 29.3505L63.1477 6.39021e-09Z" fill="white"/>
</svg>
