<svg width="60" height="60" viewBox="0 0 60 60" fill="none" xmlns="http://www.w3.org/2000/svg">
<mask id="mask0_99_939" style="mask-type:alpha" maskUnits="userSpaceOnUse" x="0" y="0" width="60" height="60">
<circle cx="30" cy="30" r="30" fill="#C4C4C4"/>
</mask>
<g mask="url(#mask0_99_939)">
<path d="M-21 6C-21 1.58172 -17.4183 -2 -13 -2H73C77.4183 -2 81 1.58172 81 6V60H-21V6Z" fill="#E8E138"/>
<path d="M38.6842 58.5072C36.2626 55.1439 34.3679 46.9598 34.1437 43.7085L22.6243 38.7476L17.8315 58.5072H38.6842Z" fill="#FC909F" stroke="black" stroke-width="0.672666"/>
<mask id="mask1_99_939" style="mask-type:alpha" maskUnits="userSpaceOnUse" x="17" y="38" width="22" height="21">
<path d="M38.6842 58.5072C36.2626 55.1439 34.3679 46.9598 34.1437 43.7085L22.6243 38.7476L17.8315 58.5072H38.6842Z" fill="#FFEDEF"/>
</mask>
<g mask="url(#mask1_99_939)">
<ellipse cx="34.0655" cy="38.3331" rx="9.92183" ry="9.081" fill="black"/>
</g>
<g clip-path="url(#clip0_99_939)">
<path d="M39.1106 56.7474C36.689 53.3841 34.7943 46.8816 34.5701 43.6304L23.0507 38.6694L18.2579 56.7474H39.1106Z" fill="#F9C9B6" stroke="black" stroke-width="0.672666"/>
<mask id="mask2_99_939" style="mask-type:alpha" maskUnits="userSpaceOnUse" x="18" y="38" width="22" height="21">
<path d="M39.1106 58.4291C36.689 55.0657 34.7943 46.8816 34.5701 43.6304L23.0507 38.6694L18.2579 58.4291H39.1106Z" fill="#F9C9B6"/>
</mask>
<g mask="url(#mask2_99_939)">
<g style="mix-blend-mode:multiply">
<ellipse cx="34.0655" cy="38.3331" rx="9.92183" ry="9.081" fill="black"/>
</g>
</g>
<mask id="path-9-inside-1_99_939" fill="white">
<path fill-rule="evenodd" clip-rule="evenodd" d="M44.1366 28.3975C44.132 28.3779 44.1274 28.3584 44.1227 28.3389C44.118 28.3194 44.1133 28.2999 44.1085 28.2804L41.3512 16.7719C41.3485 16.7605 41.3457 16.749 41.343 16.7375C41.3403 16.726 41.3375 16.7146 41.3347 16.7031L41.3225 16.6523L41.3223 16.6523C39.604 9.68272 32.5785 5.39723 25.5871 7.07231C18.5957 8.74739 14.2751 15.7513 15.9018 22.7429L15.9015 22.743L18.7588 34.669L18.7612 34.6684C20.5442 41.5472 27.5176 45.7575 34.4575 44.0948C41.3973 42.432 45.7056 35.5187 44.1778 28.5788L44.1799 28.5783L44.1366 28.3975Z"/>
</mask>
<path fill-rule="evenodd" clip-rule="evenodd" d="M44.1366 28.3975C44.132 28.3779 44.1274 28.3584 44.1227 28.3389C44.118 28.3194 44.1133 28.2999 44.1085 28.2804L41.3512 16.7719C41.3485 16.7605 41.3457 16.749 41.343 16.7375C41.3403 16.726 41.3375 16.7146 41.3347 16.7031L41.3225 16.6523L41.3223 16.6523C39.604 9.68272 32.5785 5.39723 25.5871 7.07231C18.5957 8.74739 14.2751 15.7513 15.9018 22.7429L15.9015 22.743L18.7588 34.669L18.7612 34.6684C20.5442 41.5472 27.5176 45.7575 34.4575 44.0948C41.3973 42.432 45.7056 35.5187 44.1778 28.5788L44.1799 28.5783L44.1366 28.3975Z" fill="#F9C9B6"/>
<path d="M44.1366 28.3975L43.4817 28.5512L43.4824 28.5542L44.1366 28.3975ZM44.1227 28.3389L44.7768 28.1821L44.7768 28.1821L44.1227 28.3389ZM44.1085 28.2804L43.4544 28.4371L43.4551 28.4401L44.1085 28.2804ZM41.3512 16.7719L40.6966 16.9269L40.697 16.9287L41.3512 16.7719ZM41.343 16.7375L40.6888 16.8942L40.6889 16.8943L41.343 16.7375ZM41.3347 16.7031L40.6806 16.8598L40.681 16.8616L41.3347 16.7031ZM41.3225 16.6523L41.9767 16.4956L41.8199 15.8412L41.1656 15.9982L41.3225 16.6523ZM41.3223 16.6523L40.6692 16.8134L40.8292 17.4623L41.4792 17.3065L41.3223 16.6523ZM25.5871 7.07231L25.7439 7.72647L25.5871 7.07231ZM15.9018 22.7429L16.059 23.3969L16.7083 23.2409L16.5569 22.5904L15.9018 22.7429ZM15.9015 22.743L15.7443 22.0889L15.0907 22.246L15.2473 22.8997L15.9015 22.743ZM18.7588 34.669L18.1047 34.8257L18.2614 35.4798L18.9155 35.3231L18.7588 34.669ZM18.7612 34.6684L19.4123 34.4996L19.2466 33.8605L18.6045 34.0142L18.7612 34.6684ZM34.4575 44.0948L34.3007 43.4406L34.4575 44.0948ZM44.1778 28.5788L44.021 27.9247L43.3789 28.0786L43.5209 28.7234L44.1778 28.5788ZM44.1799 28.5783L44.3367 29.2324L44.9908 29.0757L44.8341 28.4216L44.1799 28.5783ZM44.7914 28.2437C44.7866 28.2232 44.7817 28.2027 44.7768 28.1821L43.4685 28.4956C43.473 28.5141 43.4774 28.5327 43.4817 28.5512L44.7914 28.2437ZM44.7768 28.1821C44.7719 28.1616 44.767 28.1412 44.762 28.1207L43.4551 28.4401C43.4596 28.4585 43.4641 28.4771 43.4685 28.4956L44.7768 28.1821ZM40.697 16.9287L43.4544 28.4371L44.7627 28.1236L42.0054 16.6152L40.697 16.9287ZM42.0058 16.617C42.0029 16.6049 42 16.5928 41.9972 16.5808L40.6889 16.8943C40.6915 16.9052 40.6941 16.9161 40.6966 16.9269L42.0058 16.617ZM41.9972 16.5808C41.9943 16.5687 41.9914 16.5567 41.9885 16.5447L40.681 16.8616C40.6836 16.8725 40.6862 16.8834 40.6888 16.8942L41.9972 16.5808ZM40.6684 16.809L40.6806 16.8598L41.9889 16.5464L41.9767 16.4956L40.6684 16.809ZM41.4792 17.3065L41.4794 17.3064L41.1656 15.9982L41.1654 15.9982L41.4792 17.3065ZM41.9754 16.4913C40.1686 9.16291 32.7816 4.65687 25.4304 6.41816L25.7439 7.72647C32.3754 6.1376 39.0393 10.2025 40.6692 16.8134L41.9754 16.4913ZM25.4304 6.41816C18.0792 8.17945 13.5362 15.5438 15.2466 22.8953L16.5569 22.5904C15.014 15.9588 19.1123 9.31533 25.7439 7.72647L25.4304 6.41816ZM16.0586 23.397L16.059 23.3969L15.7446 22.0888L15.7443 22.0889L16.0586 23.397ZM19.413 34.5122L16.5556 22.5862L15.2473 22.8997L18.1047 34.8257L19.413 34.5122ZM18.6045 34.0142L18.6022 34.0148L18.9155 35.3231L18.9178 35.3226L18.6045 34.0142ZM18.11 34.8372C19.9849 42.0703 27.3171 46.4972 34.6142 44.7489L34.3007 43.4406C27.7181 45.0177 21.1035 41.0241 19.4123 34.4996L18.11 34.8372ZM34.6142 44.7489C41.9113 43.0006 46.4412 35.7315 44.8348 28.4342L43.5209 28.7234C44.97 35.3059 40.8834 41.8635 34.3007 43.4406L34.6142 44.7489ZM44.0231 27.9242L44.021 27.9247L44.3346 29.2329L44.3367 29.2324L44.0231 27.9242ZM43.4824 28.5542L43.5257 28.735L44.8341 28.4216L44.7907 28.2407L43.4824 28.5542Z" fill="black" mask="url(#path-9-inside-1_99_939)"/>
</g>
<path d="M28.2635 32.8677C28.684 35.7265 33.4767 37.0718 37.849 33.7926" stroke="black" stroke-width="0.672666"/>
<path d="M34.9062 18.0209C35.8592 17.5725 38.1014 17.1633 39.4467 19.114" stroke="black" stroke-width="0.672666" stroke-linecap="round"/>
<path d="M22.2231 22.2767C22.5713 21.2827 23.8513 19.3968 26.1855 19.8048" stroke="black" stroke-width="0.672666" stroke-linecap="round"/>
<path d="M28.817 3.94101L28.8298 3.94238L28.8428 3.94276C33.3276 4.07466 36.814 5.85948 39.2813 8.03764C41.645 10.1244 43.0565 12.5569 43.5168 14.2148C42.8341 14.6045 41.6646 14.9398 40.1728 15.2149C38.5457 15.5148 36.5921 15.7339 34.5987 15.8901C30.612 16.2024 26.4948 16.261 24.5717 16.2191L23.5504 16.1969L24.3587 16.8215C24.7787 17.1461 25.3378 17.372 25.9291 17.5308C26.5247 17.6908 27.1768 17.789 27.8011 17.8447C28.4441 17.9022 29.0711 17.9157 29.5905 17.9025C27.8101 19.275 25.5441 20.3304 23.3097 21.1127C20.729 22.0162 18.2193 22.5455 16.6118 22.7811L16.2504 22.8341L16.3329 23.1899C16.8958 25.6164 17.9307 29.858 18.6247 32.7028C18.9326 33.9649 19.1734 34.9521 19.2763 35.3839C19.4586 36.1497 20.0327 37.2413 20.688 38.2475C21.2922 39.1752 21.9971 40.0786 22.5919 40.6346L21.2738 45.9846H16.3027C17.7048 43.8467 18.0008 41.3764 17.7149 38.7563C17.4054 35.9203 16.4096 32.8697 15.36 29.8153C15.2567 29.5147 15.1529 29.2139 15.049 28.9133C14.0932 26.1454 13.14 23.3852 12.6236 20.7398C12.0516 17.8096 12.0261 15.0674 13.1 12.6562C14.8386 8.75245 17.9207 6.48555 21.0036 5.23629C24.0938 3.9841 27.1618 3.76464 28.817 3.94101Z" fill="white" stroke="black" stroke-width="0.672666"/>
<ellipse cx="26.278" cy="23.9907" rx="1.5135" ry="1.68167" transform="rotate(-6.77646 26.278 23.9907)" fill="black"/>
<ellipse cx="37.0458" cy="22.3085" rx="1.5135" ry="1.68167" transform="rotate(-6.27568 37.0458 22.3085)" fill="black"/>
<path d="M32.4936 23.8202C32.8212 26.1516 34.2444 27.8196 34.2444 27.8196C34.2444 27.8196 33.802 28.9007 32.0899 28.8017" stroke="black" stroke-width="0.672666"/>
<path d="M20.0181 32.2977L20.1079 32.2009V32.0689V26.4351V26.2469L19.9475 26.1485C19.3196 25.7632 18.556 25.5523 17.767 25.5523C16.8185 25.5523 15.9305 25.8462 15.2979 26.4428C14.6583 27.0461 14.3132 27.9281 14.4048 29.0277C14.4941 30.0992 14.8539 30.8878 15.4505 31.4118C15.4015 31.5798 15.387 31.761 15.4097 31.9516C15.4752 32.5012 15.753 32.8973 16.1824 33.1413C16.5917 33.3739 17.1156 33.4561 17.6735 33.4561C18.5949 33.4561 19.4029 32.9606 20.0181 32.2977Z" stroke="black" stroke-width="0.672666"/>
<path fill-rule="evenodd" clip-rule="evenodd" d="M21.1122 29.0808C21.1242 28.9713 21.1303 28.8601 21.1303 28.7475C21.1303 27.0293 19.5317 25.8887 17.767 25.8887C16.0024 25.8887 14.5719 26.9818 14.74 28.9998C14.8336 30.1227 15.2354 30.8617 15.8585 31.3065C15.7595 31.4787 15.7162 31.681 15.7437 31.9119C15.8495 32.8001 16.6077 33.1198 17.6736 33.1198C19.5412 33.1198 21.0189 30.7573 21.1122 29.0808Z" fill="#F9C9B6"/>
<path d="M18.5104 27.3182C17.8377 27.0099 16.3578 26.8474 15.8197 28.6636" stroke="black" stroke-width="0.672666"/>
<path d="M16.7446 27.4022C17.109 27.7105 17.8041 28.6635 17.6695 30.0088" stroke="black" stroke-width="0.672666"/>
<path d="M36.6814 51.3575L36.7049 51.3629L36.729 51.3649C44.4857 52.0046 49.1371 55.45 52.5128 60.1948H6.54964C9.2907 55.2605 13.1894 52.1197 19.5102 50.6786C22.2032 50.0646 25.3403 49.7583 29.021 49.7583C30.6111 49.7583 31.8485 50.0009 33.0227 50.321C33.4577 50.4396 33.8949 50.5724 34.3422 50.7083C35.0825 50.9333 35.8504 51.1667 36.6814 51.3575Z" fill="#77311D" stroke="black" stroke-width="0.672666"/>
<path d="M17.5739 51.0434L19.1131 47.7478C19.1499 47.6691 19.2412 47.6317 19.3232 47.6607C25.7011 49.9183 31.5033 49.7593 36.8803 48.2625C36.948 48.2437 37.0203 48.2686 37.0618 48.3253L39.4047 51.5293C39.4691 51.6174 39.4363 51.7416 39.3348 51.7814C33.6832 54.0006 23.0784 53.6234 17.6554 51.2659C17.5693 51.2285 17.5342 51.1284 17.5739 51.0434Z" fill="white" stroke="black" stroke-width="0.672666"/>
</g>
<defs>
<clipPath id="clip0_99_939">
<rect width="33.6333" height="53.8133" fill="white" transform="translate(13.2129 3.01807)"/>
</clipPath>
</defs>
</svg>
