<svg width="60" height="60" viewBox="0 0 60 60" fill="none" xmlns="http://www.w3.org/2000/svg">
<mask id="mask0_99_997" style="mask-type:alpha" maskUnits="userSpaceOnUse" x="0" y="0" width="60" height="60">
<circle cx="30" cy="30" r="30" fill="#C4C4C4"/>
</mask>
<g mask="url(#mask0_99_997)">
<path d="M-21 6C-21 1.58172 -17.4183 -2 -13 -2H73C77.4183 -2 81 1.58172 81 6V60H-21V6Z" fill="#E0DDFF"/>
<g clip-path="url(#clip0_99_997)">
<path d="M38.9978 60.5446C36.585 57.1935 34.6972 50.7147 34.4738 47.4753L22.9963 42.5323L18.2209 60.5446H38.9978Z" fill="#F9C9B6" stroke="black" stroke-width="0.67022"/>
<mask id="mask1_99_997" style="mask-type:alpha" maskUnits="userSpaceOnUse" x="18" y="42" width="21" height="21">
<path d="M38.9978 62.2201C36.585 58.869 34.6972 50.7147 34.4738 47.4753L22.9963 42.5323L18.2209 62.2201H38.9978Z" fill="#F9C9B6"/>
</mask>
<g mask="url(#mask1_99_997)">
<g style="mix-blend-mode:multiply">
<ellipse cx="33.9712" cy="42.1973" rx="9.88574" ry="9.04797" fill="black"/>
</g>
</g>
<mask id="path-6-inside-1_99_997" fill="white">
<path fill-rule="evenodd" clip-rule="evenodd" d="M44.0056 32.2981C44.001 32.2786 43.9964 32.259 43.9917 32.2395C43.987 32.2199 43.9823 32.2004 43.9775 32.1809L41.2303 20.7146C41.2276 20.7032 41.2249 20.6917 41.2221 20.6803C41.2194 20.6689 41.2166 20.6574 41.2139 20.646L41.2017 20.5954L41.2015 20.5954C39.4894 13.6512 32.4895 9.38126 25.5236 11.0502C18.5576 12.7192 14.2527 19.6976 15.8734 26.6638L15.8731 26.6639L18.7201 38.5465L18.7224 38.546C20.499 45.3997 27.447 49.5947 34.3616 47.938C41.2763 46.2813 45.5689 39.3932 44.0466 32.4785L44.0487 32.478L44.0056 32.2981Z"/>
</mask>
<path fill-rule="evenodd" clip-rule="evenodd" d="M44.0056 32.2981C44.001 32.2786 43.9964 32.259 43.9917 32.2395C43.987 32.2199 43.9823 32.2004 43.9775 32.1809L41.2303 20.7146C41.2276 20.7032 41.2249 20.6917 41.2221 20.6803C41.2194 20.6689 41.2166 20.6574 41.2139 20.646L41.2017 20.5954L41.2015 20.5954C39.4894 13.6512 32.4895 9.38126 25.5236 11.0502C18.5576 12.7192 14.2527 19.6976 15.8734 26.6638L15.8731 26.6639L18.7201 38.5465L18.7224 38.546C20.499 45.3997 27.447 49.5947 34.3616 47.938C41.2763 46.2813 45.5689 39.3932 44.0466 32.4785L44.0487 32.478L44.0056 32.2981Z" fill="#F9C9B6"/>
<path d="M44.0056 32.2981L43.3531 32.4514L43.3538 32.4543L44.0056 32.2981ZM43.9775 32.1809L43.3257 32.337L43.3264 32.3399L43.9775 32.1809ZM41.2303 20.7146L40.5781 20.8691L40.5785 20.8708L41.2303 20.7146ZM41.2221 20.6803L41.8739 20.5242L41.8739 20.5241L41.2221 20.6803ZM41.2139 20.646L40.5621 20.8022L40.5625 20.8039L41.2139 20.646ZM41.2017 20.5954L41.8535 20.4392L41.697 19.7861L41.0442 19.9439L41.2017 20.5954ZM41.2015 20.5954L40.5508 20.7559L40.7105 21.4037L41.359 21.2469L41.2015 20.5954ZM25.5236 11.0502L25.3674 10.3985L25.5236 11.0502ZM15.8734 26.6638L16.0305 27.3154L16.6769 27.1595L16.5262 26.5119L15.8734 26.6638ZM15.8731 26.6639L15.716 26.0123L15.0654 26.1692L15.2213 26.82L15.8731 26.6639ZM18.7201 38.5465L18.0683 38.7027L18.2245 39.3544L18.8762 39.1983L18.7201 38.5465ZM18.7224 38.546L19.3712 38.3778L19.2061 37.7409L18.5663 37.8942L18.7224 38.546ZM34.3616 47.938L34.2055 47.2863H34.2055L34.3616 47.938ZM44.0466 32.4785L43.8903 31.8268L43.2507 31.9802L43.3921 32.6226L44.0466 32.4785ZM44.0487 32.478L44.205 33.1297L44.8566 32.9735L44.7005 32.3219L44.0487 32.478ZM44.6581 32.1449C44.6533 32.1244 44.6484 32.1039 44.6435 32.0833L43.3399 32.3956C43.3444 32.4142 43.3488 32.4327 43.3531 32.4514L44.6581 32.1449ZM44.6435 32.0833C44.6385 32.0627 44.6336 32.0422 44.6286 32.0218L43.3264 32.3399C43.331 32.3585 43.3355 32.3771 43.3399 32.3956L44.6435 32.0833ZM40.5785 20.8708L43.3257 32.337L44.6293 32.0247L41.8821 20.5584L40.5785 20.8708ZM41.8825 20.5601C41.8796 20.5481 41.8768 20.5362 41.8739 20.5242L40.5703 20.8364C40.5729 20.8473 40.5755 20.8582 40.5781 20.8691L41.8825 20.5601ZM41.8739 20.5241C41.871 20.5122 41.8681 20.5002 41.8652 20.4881L40.5625 20.8039C40.5651 20.8147 40.5677 20.8255 40.5704 20.8365L41.8739 20.5241ZM40.55 20.7515L40.5621 20.8022L41.8656 20.4898L41.8535 20.4392L40.55 20.7515ZM41.359 21.2469L41.3593 21.2468L41.0442 19.9439L41.044 19.944L41.359 21.2469ZM41.8522 20.435C40.052 13.1332 32.6919 8.64358 25.3674 10.3985L25.6797 11.702C32.2872 10.1189 38.9268 14.1691 40.5508 20.7559L41.8522 20.435ZM25.3674 10.3985C18.0429 12.1534 13.5165 19.4909 15.2206 26.8157L16.5262 26.5119C14.9889 19.9044 19.0723 13.2851 25.6797 11.702L25.3674 10.3985ZM16.0302 27.3154L16.0305 27.3154L15.7164 26.0123L15.716 26.0123L16.0302 27.3154ZM19.3719 38.3904L16.5249 26.5077L15.2213 26.82L18.0683 38.7027L19.3719 38.3904ZM18.5663 37.8942L18.564 37.8947L18.8762 39.1983L18.8786 39.1978L18.5663 37.8942ZM18.0736 38.7141C19.9417 45.9209 27.2472 50.3318 34.5178 48.5898L34.2055 47.2863C27.6468 48.8577 21.0563 44.8786 19.3712 38.3778L18.0736 38.7141ZM34.5178 48.5898C41.7884 46.8478 46.3018 39.6052 44.7012 32.3344L43.3921 32.6226C44.8359 39.1812 40.7642 45.7149 34.2055 47.2863L34.5178 48.5898ZM43.8924 31.8263L43.8903 31.8268L44.203 33.1302L44.205 33.1297L43.8924 31.8263ZM43.3538 32.4543L43.3969 32.6342L44.7005 32.3219L44.6574 32.142L43.3538 32.4543Z" fill="black" mask="url(#path-6-inside-1_99_997)"/>
</g>
<path d="M33.9526 42.6555C35.7684 42.3269 36.8322 40.3204 36.4622 38.276C36.0922 36.2317 34.3927 34.7252 32.5769 35.0539C30.7611 35.3825 29.6973 37.389 30.0672 39.4334C30.4372 41.4777 32.1368 42.9842 33.9526 42.6555Z" fill="black" stroke="black" stroke-width="0.601715"/>
<mask id="mask2_99_997" style="mask-type:alpha" maskUnits="userSpaceOnUse" x="30" y="35" width="7" height="8">
<ellipse cx="33.2647" cy="38.8547" rx="2.94856" ry="3.56172" transform="rotate(-10.2582 33.2647 38.8547)" fill="#171921"/>
</mask>
<g mask="url(#mask2_99_997)">
<ellipse cx="33.8111" cy="41.8727" rx="3.38539" ry="3.06704" transform="rotate(-10.2582 33.8111 41.8727)" fill="#FC909F"/>
</g>
<circle cx="26.0929" cy="26.4662" r="2.01066" transform="rotate(-6.27568 26.0929 26.4662)" fill="#D2EFF3"/>
<ellipse cx="26.309" cy="28.0016" rx="1.50799" ry="2.26199" transform="rotate(-6.77646 26.309 28.0016)" fill="black"/>
<circle cx="36.7794" cy="25.0205" r="2.01066" transform="rotate(-6.27568 36.7794 25.0205)" fill="#D2EFF3"/>
<ellipse cx="37.0326" cy="26.326" rx="1.50799" ry="2.26199" transform="rotate(-6.27568 37.0326 26.326)" fill="black"/>
<path d="M34.8086 21.959C35.7581 21.5122 37.9921 21.1045 39.3326 23.0481" stroke="black" stroke-width="0.67022" stroke-linecap="round"/>
<path d="M22.1714 26.1993C22.5184 25.2089 23.7937 23.3299 26.1195 23.7365" stroke="black" stroke-width="0.67022" stroke-linecap="round"/>
<path d="M22.5895 25.1834L21.5593 24.2742" stroke="black" stroke-width="0.67022" stroke-linecap="round"/>
<path d="M38.8234 22.117L39.8536 21.2078" stroke="black" stroke-width="0.67022" stroke-linecap="round"/>
<path d="M23.6701 24.2377L22.9921 23.0426" stroke="black" stroke-width="0.67022" stroke-linecap="round"/>
<path d="M37.5752 21.5065L38.2533 20.3114" stroke="black" stroke-width="0.67022" stroke-linecap="round"/>
<path d="M25.0233 23.6322L24.6545 22.3086" stroke="black" stroke-width="0.67022" stroke-linecap="round"/>
<path d="M36.0546 21.4036L36.4233 20.08" stroke="black" stroke-width="0.67022" stroke-linecap="round"/>
<path d="M25.6268 20.1266C25.4952 19.8347 25.495 19.8348 25.4949 19.8349L25.4945 19.835L25.4933 19.8356L25.4891 19.8375L25.474 19.8445C25.461 19.8505 25.4422 19.8593 25.418 19.8709C25.3695 19.894 25.2993 19.9282 25.2104 19.9733C25.0326 20.0635 24.7799 20.1974 24.4766 20.3738C23.8706 20.7263 23.0595 21.2505 22.2407 21.9373C20.6126 23.3029 18.9025 25.356 18.7995 28.0195C18.7552 29.1655 18.6119 34.7016 18.6439 36.8173C18.6709 38.5988 19.5929 40.5116 20.8718 42.2755C21.9861 43.8123 23.3934 45.2662 24.7882 46.4642C18.4604 46.7144 13.6665 45.8842 10.4269 44.9753C8.73742 44.5013 7.47007 44.0056 6.62779 43.6302C6.29485 43.4818 6.02831 43.3522 5.82838 43.25C7.35219 42.1301 8.62345 40.2101 9.46223 37.3606C10.3821 34.2355 10.79 29.9678 10.4321 24.3394C10.1078 19.2394 12.5863 14.9307 16.3314 11.8845C20.0803 8.83516 25.0761 7.07262 29.7152 7.07263C32.2258 7.07263 34.2625 7.56422 35.9046 8.75667C37.5472 9.94955 38.8353 11.8732 39.7895 14.8172L39.8557 15.0215L40.0699 15.0378C42.1435 15.1949 43.6018 16.0497 44.6769 17.4193C45.7636 18.8037 46.4712 20.7301 46.9899 23.0442C47.3316 24.5688 46.9988 26.0733 46.5987 27.8058L46.5801 27.8866C46.1884 29.5817 45.7526 31.4677 45.9444 33.6728C46.117 35.6573 46.909 37.6051 47.5674 39.1029C47.652 39.2954 47.7339 39.4794 47.812 39.6549C48.0423 40.1722 48.2393 40.6146 48.3723 40.976C48.4613 41.2182 48.5128 41.4012 48.5292 41.5312C48.5376 41.5976 48.5346 41.6321 48.5323 41.6465C48.4578 41.7153 48.3198 41.7915 48.0993 41.8589C47.8698 41.929 47.581 41.9806 47.2489 42.013C46.5853 42.0777 45.7839 42.0627 45.0141 41.9886C44.2429 41.9143 43.5219 41.7826 43.0166 41.622C42.7602 41.5405 42.5828 41.4588 42.4827 41.3879C42.4674 41.377 42.4557 41.3678 42.4467 41.3603C42.5092 41.1446 42.5993 40.8873 42.7033 40.5901C43.2386 39.0611 44.1434 36.4764 43.5583 33.072C43.2082 31.0352 42.2738 27.4382 41.4314 24.3642C41.0094 22.8242 40.6092 21.4106 40.3144 20.3821C40.1671 19.8678 40.0461 19.4497 39.9619 19.1601C39.9198 19.0154 39.8869 18.9027 39.8645 18.8262L39.839 18.7391L39.8325 18.7168L39.8308 18.7111L39.8304 18.7097L39.8303 18.7093C39.8302 18.7092 39.8302 18.7092 39.523 18.7995L39.8302 18.7092L39.6746 18.1799L39.2923 18.5776L39.2922 18.5776L39.2916 18.5783L39.2883 18.5817L39.2739 18.5964C39.2608 18.6096 39.2408 18.6298 39.2139 18.6563C39.1602 18.7094 39.0792 18.788 38.9717 18.8883C38.7568 19.089 38.4362 19.3765 38.017 19.7202C37.1784 20.4079 35.9467 21.3193 34.3783 22.2105C31.3928 23.9071 27.1984 25.5248 22.1767 25.3996C23.7876 23.9032 24.7145 22.6732 25.2455 21.7822C25.5416 21.2855 25.7144 20.8946 25.8141 20.6223C25.8639 20.4862 25.8953 20.3798 25.9147 20.3049C25.9244 20.2675 25.9311 20.2379 25.9356 20.2165C25.9378 20.2057 25.9395 20.197 25.9407 20.1903L25.9422 20.1819L25.9427 20.1788L25.9429 20.1775L25.943 20.177C25.9431 20.1767 25.9431 20.1765 25.6268 20.1266ZM25.6268 20.1266L25.4952 19.8347L26.0355 19.591L25.9431 20.1765L25.6268 20.1266ZM42.421 41.3338C42.4214 41.3339 42.4234 41.3361 42.4258 41.3405C42.4218 41.336 42.4206 41.3338 42.421 41.3338Z" fill="#D2EFF3" stroke="black" stroke-width="0.640368"/>
<path d="M40.003 14.7181C40.0868 15.4721 39.9528 16.9801 39.7517 17.9855" stroke="black" stroke-width="0.67022"/>
<path d="M32.5099 28.4099C32.544 29.0538 32.7944 30.4342 33.5234 30.8055C34.4346 31.2697 33.7203 32.8083 32.0144 32.7096" stroke="black" stroke-width="0.67022"/>
<path d="M19.9743 36.1839L20.0638 36.0875V35.956V30.3427V30.1551L19.9039 30.0571C19.2783 29.6732 18.5175 29.4631 17.7314 29.4631C16.7864 29.4631 15.9016 29.7559 15.2713 30.3503C14.634 30.9514 14.2902 31.8302 14.3815 32.9258C14.4704 33.9934 14.8289 34.7792 15.4233 35.3013C15.3745 35.4687 15.3601 35.6492 15.3827 35.8391C15.4479 36.3867 15.7248 36.7813 16.1526 37.0245C16.5604 37.2563 17.0823 37.3382 17.6383 37.3382C18.5563 37.3382 19.3614 36.8444 19.9743 36.1839Z" stroke="black" stroke-width="0.67022"/>
<path fill-rule="evenodd" clip-rule="evenodd" d="M21.0645 32.9788C21.0764 32.8697 21.0825 32.7589 21.0825 32.6467C21.0825 30.9347 19.4896 29.7982 17.7314 29.7982C15.9732 29.7982 14.5479 30.8873 14.7154 32.898C14.8087 34.0168 15.209 34.7531 15.8298 35.1964C15.7312 35.3679 15.6881 35.5694 15.7155 35.7995C15.8209 36.6845 16.5763 37.0031 17.6383 37.0031C19.4991 37.0031 20.9714 34.6493 21.0645 32.9788Z" fill="#F9C9B6"/>
<path d="M18.472 31.2226C17.8018 30.9154 16.3273 30.7534 15.7911 32.563" stroke="black" stroke-width="0.67022"/>
<path d="M16.7126 31.3063C17.0757 31.6135 17.7682 32.5629 17.6342 33.9034" stroke="black" stroke-width="0.67022"/>
<circle cx="17.3829" cy="35.9977" r="0.67022" fill="white"/>
<circle cx="17.5505" cy="35.8302" r="0.167555" fill="#FFEDEF"/>
<path d="M29.911 60.0548L30.1169 59.7904L29.911 60.0548L30.1995 60.2795L30.3982 59.9726L30.3982 59.9726L30.3985 59.9721L30.4001 59.9697L30.407 59.9592L30.4352 59.9166C30.4604 59.8789 30.4982 59.8231 30.5475 59.7518C30.6461 59.6093 30.791 59.4053 30.9745 59.1615C31.342 58.6731 31.8622 58.0281 32.4747 57.3975C33.0888 56.7652 33.786 56.1574 34.5065 55.7345C35.2297 55.31 35.9439 55.0904 36.6068 55.1797C43.7176 56.1385 48.9504 59.2881 52.3471 63.9794H6.55442C9.28551 59.0631 13.17 55.9337 19.4679 54.4978C19.7363 54.4366 20.1012 54.4552 20.5574 54.5613C21.009 54.6663 21.5238 54.8508 22.079 55.0949C23.1893 55.5829 24.4288 56.2946 25.5936 57.0319C26.7566 57.768 27.8366 58.5241 28.6263 59.0967C29.021 59.3828 29.3427 59.6228 29.5655 59.791C29.6769 59.8752 29.7636 59.9413 29.8223 59.9864L29.8888 60.0376L29.9056 60.0506L29.9098 60.0539L29.9107 60.0546L29.911 60.0548Z" fill="#9287FF" stroke="black" stroke-width="0.67022"/>
<path d="M17.4854 54.9458L18.3511 51.7233C18.3862 51.5928 18.555 51.556 18.6462 51.6557C21.1366 54.3809 24.2793 54.2741 25.3224 54.149C25.464 54.132 25.5749 54.287 25.5083 54.4131L23.3038 58.5941C23.27 58.6582 23.2009 58.6934 23.13 58.6787C22.4683 58.5408 19.1718 57.7351 17.5048 55.0767C17.4804 55.0378 17.4735 54.9901 17.4854 54.9458Z" fill="#E0DDFF" stroke="black" stroke-width="0.67022"/>
<path d="M39.365 54.9283L37.4247 51.6639C37.3588 51.5531 37.1965 51.5549 37.1263 51.663C36.165 53.1435 34.5071 53.8256 33.9274 54.027C33.8231 54.0633 33.7754 54.1872 33.8316 54.2822L36.094 58.1049C36.1278 58.162 36.1916 58.1929 36.2553 58.1747C36.613 58.0729 37.8404 57.5595 39.3629 55.1025C39.3956 55.0497 39.3968 54.9817 39.365 54.9283Z" fill="#E0DDFF" stroke="black" stroke-width="0.67022"/>
<path d="M27.0172 57.8637L25.5092 54.2612L24.3363 56.7746L27.0172 57.8637Z" fill="black" stroke="black" stroke-width="0.67022" stroke-linejoin="round"/>
<path d="M32.2952 57.6962L33.8032 54.0938L34.9761 56.6071L32.2952 57.6962Z" fill="black" stroke="black" stroke-width="0.67022" stroke-linejoin="round"/>
<path d="M20.4826 51.0778L18.4719 51.5804L20.1475 52.6695L20.4826 51.0778Z" fill="black" stroke="black" stroke-width="0.67022" stroke-linejoin="round"/>
<path d="M35.4787 51.0778L37.3218 51.5804L36.1489 52.6695L35.4787 51.0778Z" fill="black" stroke="black" stroke-width="0.67022" stroke-linejoin="round"/>
</g>
<defs>
<clipPath id="clip0_99_997">
<rect width="33.511" height="53.6176" fill="white" transform="translate(13.1943 7.01074)"/>
</clipPath>
</defs>
</svg>
