<svg width="35" height="34" viewBox="0 0 35 34" fill="none" xmlns="http://www.w3.org/2000/svg">
<path d="M29.9708 12.155V21.845C29.9708 23.4317 29.1208 24.9051 27.7466 25.7126L19.3316 30.5717C17.9575 31.365 16.2575 31.365 14.8691 30.5717L6.45415 25.7126C5.07998 24.9192 4.22998 23.4458 4.22998 21.845V12.155C4.22998 10.5684 5.07998 9.09498 6.45415 8.28748L14.8691 3.42833C16.2433 2.63499 17.9433 2.63499 19.3316 3.42833L27.7466 8.28748C29.1208 9.09498 29.9708 10.5542 29.9708 12.155Z" stroke="#292D32" stroke-width="1.82143" stroke-linecap="round" stroke-linejoin="round"/>
<path d="M17.1075 15.5833C18.9305 15.5833 20.4083 14.1055 20.4083 12.2825C20.4083 10.4595 18.9305 8.9817 17.1075 8.9817C15.2845 8.9817 13.8066 10.4595 13.8066 12.2825C13.8066 14.1055 15.2845 15.5833 17.1075 15.5833Z" stroke="#292D32" stroke-width="1.82143" stroke-linecap="round" stroke-linejoin="round"/>
<path d="M22.774 23.6016C22.774 21.0516 20.2382 18.9834 17.1073 18.9834C13.9765 18.9834 11.4407 21.0516 11.4407 23.6016" stroke="#292D32" stroke-width="1.82143" stroke-linecap="round" stroke-linejoin="round"/>
</svg>
