<svg width="34" height="34" viewBox="0 0 34 34" fill="none" xmlns="http://www.w3.org/2000/svg">
<path d="M18.4167 12.75H9.91675" stroke="#292D32" stroke-width="2.125" stroke-linecap="round" stroke-linejoin="round"/>
<path d="M31.1666 15.5408V18.4592C31.1666 19.2384 30.5433 19.8758 29.75 19.9042H26.9733C25.4433 19.9042 24.0408 18.785 23.9133 17.255C23.8283 16.3625 24.1683 15.5267 24.7633 14.9458C25.2874 14.4075 26.01 14.0959 26.8033 14.0959H29.75C30.5433 14.1242 31.1666 14.7616 31.1666 15.5408Z" stroke="#292D32" stroke-width="2.125" stroke-linecap="round" stroke-linejoin="round"/>
<path d="M24.7635 14.9458C24.1685 15.5266 23.8285 16.3625 23.9135 17.255C24.041 18.785 25.4435 19.9041 26.9735 19.9041H29.7502V21.9583C29.7502 26.2083 26.9168 29.0417 22.6668 29.0417H9.91683C5.66683 29.0417 2.8335 26.2083 2.8335 21.9583V12.0417C2.8335 8.18833 5.15683 5.49666 8.76933 5.04332C9.13767 4.98666 9.52016 4.95833 9.91683 4.95833H22.6668C23.0352 4.95833 23.3893 4.97248 23.7293 5.02914C27.3843 5.45414 29.7502 8.16 29.7502 12.0417V14.0958H26.8035C26.0101 14.0958 25.2876 14.4075 24.7635 14.9458Z" stroke="#292D32" stroke-width="2.125" stroke-linecap="round" stroke-linejoin="round"/>
</svg>
