<svg width="54" height="54" viewBox="0 0 54 54" fill="none" xmlns="http://www.w3.org/2000/svg">
<path d="M49.5 11.25V15.75C49.5 19.8675 47.6325 22.095 43.875 22.4325C43.515 22.4775 43.1325 22.5 42.75 22.5H11.25C10.8675 22.5 10.485 22.4775 10.125 22.4325C6.3675 22.095 4.5 19.8675 4.5 15.75V11.25C4.5 6.75 6.75 4.5 11.25 4.5H42.75C47.25 4.5 49.5 6.75 49.5 11.25Z" fill="white"/>
<path d="M12.375 25.3125C11.1375 25.3125 10.125 26.325 10.125 27.5625V42.75C10.125 47.25 11.25 49.5 16.875 49.5H37.125C42.75 49.5 43.875 47.25 43.875 42.75V27.5625C43.875 26.325 42.8625 25.3125 41.625 25.3125H12.375ZM31.095 35.4375H22.905C21.9825 35.4375 21.2175 34.6725 21.2175 33.75C21.2175 32.8275 21.9825 32.0625 22.905 32.0625H31.095C32.0175 32.0625 32.7825 32.8275 32.7825 33.75C32.7825 34.6725 32.0175 35.4375 31.095 35.4375Z" fill="white"/>
</svg>
